<svg width="113" height="180" viewBox="0 0 113 180" fill="none" xmlns="http://www.w3.org/2000/svg">
<path d="M3.96307 21L0.383523 7.90909H1.99432L4.73011 18.571H4.85795L7.64489 7.90909H9.43466L12.2216 18.571H12.3494L15.0852 7.90909H16.696L13.1165 21H11.4801L8.59091 10.5682H8.48864L5.59943 21H3.96307ZM21.669 21.2045C20.723 21.2045 19.907 20.9957 19.2209 20.5781C18.5391 20.1562 18.0128 19.5682 17.642 18.8139C17.2756 18.0554 17.0923 17.1733 17.0923 16.1676C17.0923 15.1619 17.2756 14.2756 17.642 13.5085C18.0128 12.7372 18.5284 12.1364 19.1889 11.706C19.8537 11.2713 20.6293 11.054 21.5156 11.054C22.027 11.054 22.532 11.1392 23.0305 11.3097C23.5291 11.4801 23.983 11.7571 24.392 12.1406C24.8011 12.5199 25.1271 13.0227 25.37 13.6491C25.6129 14.2756 25.7344 15.0469 25.7344 15.9631V16.6023H18.1662V15.2983H24.2003C24.2003 14.7443 24.0895 14.25 23.8679 13.8153C23.6506 13.3807 23.3395 13.0376 22.9347 12.7862C22.5341 12.5348 22.0611 12.4091 21.5156 12.4091C20.9148 12.4091 20.3949 12.5582 19.956 12.8565C19.5213 13.1506 19.1868 13.5341 18.9524 14.0071C18.718 14.4801 18.6009 14.9872 18.6009 15.5284V16.3977C18.6009 17.1392 18.7287 17.7678 18.9844 18.2834C19.2443 18.7947 19.6044 19.1847 20.0646 19.4531C20.5249 19.7173 21.0597 19.8494 21.669 19.8494C22.0653 19.8494 22.4233 19.794 22.7429 19.6832C23.0668 19.5682 23.3459 19.3977 23.5803 19.1719C23.8146 18.9418 23.9957 18.6562 24.1236 18.3153L25.581 18.7244C25.4276 19.2188 25.1697 19.6534 24.8075 20.0284C24.4453 20.3991 23.9979 20.6889 23.4652 20.8977C22.9325 21.1023 22.3338 21.2045 21.669 21.2045ZM28.2337 21V7.90909H29.7422V12.7415H29.87C29.9808 12.571 30.1342 12.3537 30.3303 12.0895C30.5305 11.821 30.8161 11.5824 31.1868 11.3736C31.5618 11.1605 32.0689 11.054 32.7081 11.054C33.5348 11.054 34.2635 11.2607 34.8942 11.674C35.5249 12.0874 36.017 12.6733 36.3707 13.4318C36.7244 14.1903 36.9013 15.0852 36.9013 16.1165C36.9013 17.1562 36.7244 18.0575 36.3707 18.8203C36.017 19.5788 35.527 20.1669 34.9006 20.5845C34.2741 20.9979 33.5518 21.2045 32.7337 21.2045C32.103 21.2045 31.598 21.1001 31.2188 20.8913C30.8395 20.6783 30.5476 20.4375 30.343 20.169C30.1385 19.8963 29.9808 19.6705 29.87 19.4915H29.6911V21H28.2337ZM29.7166 16.0909C29.7166 16.8324 29.8253 17.4865 30.0426 18.0533C30.2599 18.6158 30.5774 19.0568 30.995 19.3764C31.4126 19.6918 31.924 19.8494 32.5291 19.8494C33.1598 19.8494 33.6861 19.6832 34.108 19.3509C34.5341 19.0142 34.8537 18.5625 35.0668 17.9957C35.2841 17.4247 35.3928 16.7898 35.3928 16.0909C35.3928 15.4006 35.2862 14.7784 35.0732 14.2244C34.8643 13.6662 34.5469 13.2251 34.1207 12.9013C33.6989 12.5732 33.1683 12.4091 32.5291 12.4091C31.9155 12.4091 31.3999 12.5646 30.9822 12.8757C30.5646 13.1825 30.2493 13.6129 30.0362 14.1669C29.8232 14.7166 29.7166 15.358 29.7166 16.0909ZM48.5156 21H44.4759V7.90909H48.6946C49.9645 7.90909 51.0511 8.17116 51.9545 8.69531C52.858 9.2152 53.5504 9.96307 54.032 10.9389C54.5135 11.9105 54.7543 13.0739 54.7543 14.429C54.7543 15.7926 54.5114 16.9666 54.0256 17.951C53.5398 18.9311 52.8324 19.6854 51.9034 20.2138C50.9744 20.7379 49.8452 21 48.5156 21ZM46.0611 19.5938H48.4134C49.4957 19.5938 50.3928 19.3849 51.1044 18.9673C51.8161 18.5497 52.3466 17.9553 52.696 17.1839C53.0455 16.4126 53.2202 15.4943 53.2202 14.429C53.2202 13.3722 53.0476 12.4624 52.7024 11.6996C52.3572 10.9325 51.8416 10.3445 51.1555 9.93537C50.4695 9.52202 49.6151 9.31534 48.5923 9.31534H46.0611V19.5938ZM61.3253 21.2045C60.3793 21.2045 59.5632 20.9957 58.8771 20.5781C58.1953 20.1562 57.669 19.5682 57.2983 18.8139C56.9318 18.0554 56.7486 17.1733 56.7486 16.1676C56.7486 15.1619 56.9318 14.2756 57.2983 13.5085C57.669 12.7372 58.1847 12.1364 58.8452 11.706C59.5099 11.2713 60.2855 11.054 61.1719 11.054C61.6832 11.054 62.1882 11.1392 62.6868 11.3097C63.1854 11.4801 63.6392 11.7571 64.0483 12.1406C64.4574 12.5199 64.7834 13.0227 65.0263 13.6491C65.2692 14.2756 65.3906 15.0469 65.3906 15.9631V16.6023H57.8224V15.2983H63.8565C63.8565 14.7443 63.7457 14.25 63.5241 13.8153C63.3068 13.3807 62.9957 13.0376 62.5909 12.7862C62.1903 12.5348 61.7173 12.4091 61.1719 12.4091C60.571 12.4091 60.0511 12.5582 59.6122 12.8565C59.1776 13.1506 58.843 13.5341 58.6087 14.0071C58.3743 14.4801 58.2571 14.9872 58.2571 15.5284V16.3977C58.2571 17.1392 58.3849 17.7678 58.6406 18.2834C58.9006 18.7947 59.2607 19.1847 59.7209 19.4531C60.1811 19.7173 60.7159 19.8494 61.3253 19.8494C61.7216 19.8494 62.0795 19.794 62.3991 19.6832C62.723 19.5682 63.0021 19.3977 63.2365 19.1719C63.4709 18.9418 63.652 18.6562 63.7798 18.3153L65.2372 18.7244C65.0838 19.2188 64.826 19.6534 64.4638 20.0284C64.1016 20.3991 63.6541 20.6889 63.1214 20.8977C62.5888 21.1023 61.9901 21.2045 61.3253 21.2045ZM74.6399 13.3807L73.2848 13.7642C73.1996 13.5384 73.0739 13.3189 72.9077 13.1058C72.7457 12.8885 72.5241 12.7095 72.2429 12.5689C71.9616 12.4283 71.6016 12.358 71.1626 12.358C70.5618 12.358 70.0611 12.4964 69.6605 12.7734C69.2642 13.0462 69.0661 13.3935 69.0661 13.8153C69.0661 14.1903 69.2024 14.4865 69.4751 14.7038C69.7479 14.9212 70.174 15.1023 70.7536 15.2472L72.2109 15.6051C73.0888 15.8182 73.7429 16.1442 74.1733 16.5831C74.6037 17.0178 74.8189 17.5781 74.8189 18.2642C74.8189 18.8267 74.657 19.3295 74.3331 19.7727C74.0135 20.2159 73.5661 20.5653 72.9908 20.821C72.4155 21.0767 71.7464 21.2045 70.9837 21.2045C69.9822 21.2045 69.1534 20.9872 68.4972 20.5526C67.8409 20.1179 67.4254 19.483 67.2507 18.6477L68.6825 18.2898C68.8189 18.8182 69.0767 19.2145 69.456 19.4787C69.8395 19.7429 70.3402 19.875 70.9581 19.875C71.6612 19.875 72.2195 19.7259 72.6328 19.4276C73.0504 19.125 73.2592 18.7628 73.2592 18.3409C73.2592 18 73.1399 17.7145 72.9013 17.4844C72.6626 17.25 72.2962 17.0753 71.8018 16.9602L70.1655 16.5767C69.2663 16.3636 68.6058 16.0334 68.1839 15.5859C67.7663 15.1342 67.5575 14.5696 67.5575 13.892C67.5575 13.3381 67.7131 12.848 68.0241 12.4219C68.3395 11.9957 68.7678 11.6612 69.3089 11.4183C69.8544 11.1754 70.4723 11.054 71.1626 11.054C72.1342 11.054 72.897 11.267 73.451 11.6932C74.0092 12.1193 74.4055 12.6818 74.6399 13.3807ZM77.0897 21V11.1818H78.5982V21H77.0897ZM77.8567 9.54545C77.5627 9.54545 77.3091 9.44531 77.0961 9.24503C76.8873 9.04474 76.7828 8.80398 76.7828 8.52273C76.7828 8.24148 76.8873 8.00071 77.0961 7.80043C77.3091 7.60014 77.5627 7.5 77.8567 7.5C78.1507 7.5 78.4022 7.60014 78.611 7.80043C78.824 8.00071 78.9306 8.24148 78.9306 8.52273C78.9306 8.80398 78.824 9.04474 78.611 9.24503C78.4022 9.44531 78.1507 9.54545 77.8567 9.54545ZM85.3242 24.8864C84.5955 24.8864 83.9691 24.7926 83.445 24.6051C82.9208 24.4219 82.484 24.179 82.1346 23.8764C81.7894 23.5781 81.5146 23.2585 81.31 22.9176L82.5117 22.0739C82.6481 22.2528 82.8207 22.4574 83.0295 22.6875C83.2383 22.9219 83.5238 23.1243 83.886 23.2947C84.2525 23.4695 84.7319 23.5568 85.3242 23.5568C86.1168 23.5568 86.771 23.3651 87.2866 22.9815C87.8022 22.598 88.06 21.9972 88.06 21.179V19.1847H87.9322C87.8214 19.3636 87.6637 19.5852 87.4592 19.8494C87.2589 20.1094 86.9691 20.3416 86.5898 20.5462C86.2148 20.7464 85.7077 20.8466 85.0685 20.8466C84.2759 20.8466 83.5643 20.6591 82.9336 20.2841C82.3072 19.9091 81.8107 19.3636 81.4442 18.6477C81.082 17.9318 80.9009 17.0625 80.9009 16.0398C80.9009 15.0341 81.0778 14.1584 81.4315 13.4126C81.7852 12.6626 82.2773 12.0831 82.908 11.674C83.5387 11.2607 84.2674 11.054 85.0941 11.054C85.7333 11.054 86.2404 11.1605 86.6154 11.3736C86.9947 11.5824 87.2844 11.821 87.4847 12.0895C87.6893 12.3537 87.8469 12.571 87.9577 12.7415H88.1112V11.1818H89.5685V21.2812C89.5685 22.125 89.3768 22.8111 88.9933 23.3395C88.614 23.8722 88.1026 24.2621 87.4592 24.5092C86.82 24.7607 86.1083 24.8864 85.3242 24.8864ZM85.2731 19.4915C85.8782 19.4915 86.3896 19.353 86.8072 19.076C87.2248 18.799 87.5423 18.4006 87.7596 17.8807C87.9769 17.3608 88.0856 16.7386 88.0856 16.0142C88.0856 15.3068 87.979 14.6825 87.766 14.1413C87.5529 13.6001 87.2376 13.1761 86.82 12.8693C86.4023 12.5625 85.8867 12.4091 85.2731 12.4091C84.6339 12.4091 84.1012 12.571 83.6751 12.8949C83.2532 13.2187 82.9357 13.6534 82.7227 14.1989C82.5138 14.7443 82.4094 15.3494 82.4094 16.0142C82.4094 16.696 82.516 17.299 82.729 17.8232C82.9464 18.343 83.266 18.7521 83.6879 19.0504C84.114 19.3445 84.6424 19.4915 85.2731 19.4915ZM93.8384 15.0938V21H92.3299V11.1818H93.7873V12.7159H93.9151C94.1452 12.2173 94.4947 11.8168 94.9634 11.5142C95.4322 11.2074 96.0373 11.054 96.7788 11.054C97.4435 11.054 98.0252 11.1903 98.5238 11.4631C99.0224 11.7315 99.4102 12.1406 99.6871 12.6903C99.9641 13.2358 100.103 13.9261 100.103 14.7614V21H98.5941V14.8636C98.5941 14.0923 98.3938 13.4915 97.9933 13.0611C97.5927 12.6264 97.043 12.4091 96.3441 12.4091C95.8626 12.4091 95.4322 12.5135 95.0529 12.7223C94.6779 12.9311 94.3817 13.2358 94.1644 13.6364C93.9471 14.0369 93.8384 14.5227 93.8384 15.0938Z" fill="#787878"/>
<path d="M3.17045 121.909V135H1.58523V121.909H3.17045ZM7.65288 121.909V135H6.14435V121.909H7.65288ZM11.9244 121.909V135H10.4158V121.909H11.9244ZM20.8748 130.986V125.182H22.3833V135H20.8748V133.338H20.7726C20.5424 133.837 20.1845 134.261 19.6987 134.61C19.2129 134.955 18.5993 135.128 17.8578 135.128C17.2441 135.128 16.6987 134.994 16.2214 134.725C15.7441 134.452 15.3691 134.043 15.0964 133.498C14.8237 132.948 14.6873 132.256 14.6873 131.42V125.182H16.1958V131.318C16.1958 132.034 16.3961 132.605 16.7967 133.031C17.2015 133.457 17.7172 133.67 18.3436 133.67C18.7186 133.67 19.1 133.575 19.4877 133.383C19.8798 133.191 20.2079 132.897 20.4721 132.501C20.7406 132.104 20.8748 131.599 20.8748 130.986ZM32.1009 127.381L30.7457 127.764C30.6605 127.538 30.5348 127.319 30.3686 127.106C30.2067 126.888 29.9851 126.71 29.7038 126.569C29.4226 126.428 29.0625 126.358 28.6236 126.358C28.0227 126.358 27.522 126.496 27.1214 126.773C26.7251 127.046 26.527 127.393 26.527 127.815C26.527 128.19 26.6634 128.487 26.9361 128.704C27.2088 128.921 27.6349 129.102 28.2145 129.247L29.6719 129.605C30.5497 129.818 31.2038 130.144 31.6342 130.583C32.0646 131.018 32.2798 131.578 32.2798 132.264C32.2798 132.827 32.1179 133.33 31.794 133.773C31.4744 134.216 31.027 134.565 30.4517 134.821C29.8764 135.077 29.2074 135.205 28.4446 135.205C27.4432 135.205 26.6143 134.987 25.9581 134.553C25.3018 134.118 24.8864 133.483 24.7116 132.648L26.1435 132.29C26.2798 132.818 26.5376 133.214 26.9169 133.479C27.3004 133.743 27.8011 133.875 28.419 133.875C29.1222 133.875 29.6804 133.726 30.0938 133.428C30.5114 133.125 30.7202 132.763 30.7202 132.341C30.7202 132 30.6009 131.714 30.3622 131.484C30.1236 131.25 29.7571 131.075 29.2628 130.96L27.6264 130.577C26.7273 130.364 26.0668 130.033 25.6449 129.586C25.2273 129.134 25.0185 128.57 25.0185 127.892C25.0185 127.338 25.174 126.848 25.4851 126.422C25.8004 125.996 26.2287 125.661 26.7699 125.418C27.3153 125.175 27.9332 125.054 28.6236 125.054C29.5952 125.054 30.358 125.267 30.9119 125.693C31.4702 126.119 31.8665 126.682 32.1009 127.381ZM38.8205 125.182V126.46H33.7324V125.182H38.8205ZM35.2154 122.83H36.7239V132.188C36.7239 132.614 36.7857 132.933 36.9093 133.146C37.0371 133.355 37.199 133.496 37.3951 133.568C37.5953 133.636 37.8063 133.67 38.0279 133.67C38.1941 133.67 38.3304 133.662 38.437 133.645C38.5435 133.624 38.6287 133.607 38.6926 133.594L38.9995 134.949C38.8972 134.987 38.7544 135.026 38.5712 135.064C38.388 135.107 38.1557 135.128 37.8745 135.128C37.4483 135.128 37.0307 135.036 36.6216 134.853C36.2168 134.67 35.8801 134.391 35.6117 134.016C35.3475 133.641 35.2154 133.168 35.2154 132.597V122.83ZM41.0897 135V125.182H42.5471V126.665H42.6493C42.8283 126.179 43.1522 125.785 43.6209 125.482C44.0897 125.18 44.6181 125.028 45.2061 125.028C45.3169 125.028 45.4554 125.031 45.6216 125.035C45.7878 125.039 45.9135 125.045 45.9988 125.054V126.588C45.9476 126.575 45.8304 126.556 45.6472 126.531C45.4682 126.501 45.2786 126.486 45.0783 126.486C44.601 126.486 44.1749 126.586 43.7999 126.786C43.4292 126.982 43.1351 127.255 42.9178 127.604C42.7047 127.95 42.5982 128.344 42.5982 128.787V135H41.0897ZM50.6761 135.23C50.054 135.23 49.4893 135.113 48.9822 134.879C48.4751 134.64 48.0724 134.297 47.7741 133.849C47.4759 133.398 47.3267 132.852 47.3267 132.213C47.3267 131.651 47.4375 131.195 47.6591 130.845C47.8807 130.491 48.1768 130.214 48.5476 130.014C48.9183 129.814 49.3274 129.665 49.7749 129.567C50.2266 129.464 50.6804 129.384 51.1364 129.324C51.733 129.247 52.2166 129.19 52.5874 129.151C52.9624 129.109 53.2351 129.038 53.4055 128.94C53.5803 128.842 53.6676 128.672 53.6676 128.429V128.378C53.6676 127.747 53.495 127.257 53.1499 126.908C52.8089 126.558 52.2912 126.384 51.5966 126.384C50.8764 126.384 50.3118 126.541 49.9027 126.857C49.4936 127.172 49.206 127.509 49.0398 127.866L47.608 127.355C47.8636 126.759 48.2045 126.294 48.6307 125.962C49.0611 125.625 49.5298 125.391 50.0369 125.259C50.5483 125.122 51.0511 125.054 51.5455 125.054C51.8608 125.054 52.223 125.092 52.6321 125.169C53.0455 125.241 53.4439 125.393 53.8274 125.623C54.2152 125.853 54.5369 126.2 54.7926 126.665C55.0483 127.129 55.1761 127.751 55.1761 128.531V135H53.6676V133.67H53.5909C53.4886 133.884 53.3182 134.112 53.0795 134.354C52.8409 134.597 52.5234 134.804 52.1271 134.974C51.7308 135.145 51.2472 135.23 50.6761 135.23ZM50.9062 133.875C51.5028 133.875 52.0057 133.758 52.4148 133.523C52.8281 133.289 53.1392 132.987 53.348 132.616C53.5611 132.245 53.6676 131.855 53.6676 131.446V130.065C53.6037 130.142 53.4631 130.212 53.2457 130.276C53.0327 130.336 52.7855 130.389 52.5043 130.436C52.2273 130.479 51.9567 130.517 51.6925 130.551C51.4325 130.581 51.2216 130.607 51.0597 130.628C50.6676 130.679 50.3011 130.762 49.9602 130.877C49.6236 130.988 49.3509 131.156 49.142 131.382C48.9375 131.604 48.8352 131.906 48.8352 132.29C48.8352 132.814 49.0291 133.21 49.4169 133.479C49.8089 133.743 50.3054 133.875 50.9062 133.875ZM62.1994 125.182V126.46H57.1113V125.182H62.1994ZM58.5943 122.83H60.1028V132.188C60.1028 132.614 60.1646 132.933 60.2882 133.146C60.416 133.355 60.5779 133.496 60.774 133.568C60.9743 133.636 61.1852 133.67 61.4068 133.67C61.573 133.67 61.7093 133.662 61.8159 133.645C61.9224 133.624 62.0076 133.607 62.0716 133.594L62.3784 134.949C62.2761 134.987 62.1333 135.026 61.9501 135.064C61.7669 135.107 61.5346 135.128 61.2534 135.128C60.8272 135.128 60.4096 135.036 60.0005 134.853C59.5957 134.67 59.2591 134.391 58.9906 134.016C58.7264 133.641 58.5943 133.168 58.5943 132.597V122.83ZM64.4686 135V125.182H65.9771V135H64.4686ZM65.2356 123.545C64.9416 123.545 64.688 123.445 64.475 123.245C64.2662 123.045 64.1618 122.804 64.1618 122.523C64.1618 122.241 64.2662 122.001 64.475 121.8C64.688 121.6 64.9416 121.5 65.2356 121.5C65.5297 121.5 65.7811 121.6 65.9899 121.8C66.2029 122.001 66.3095 122.241 66.3095 122.523C66.3095 122.804 66.2029 123.045 65.9899 123.245C65.7811 123.445 65.5297 123.545 65.2356 123.545ZM72.7287 135.205C71.8423 135.205 71.0646 134.994 70.3956 134.572C69.7308 134.15 69.2109 133.56 68.8359 132.801C68.4652 132.043 68.2798 131.156 68.2798 130.142C68.2798 129.119 68.4652 128.227 68.8359 127.464C69.2109 126.701 69.7308 126.109 70.3956 125.687C71.0646 125.265 71.8423 125.054 72.7287 125.054C73.6151 125.054 74.3906 125.265 75.0554 125.687C75.7244 126.109 76.2443 126.701 76.6151 127.464C76.9901 128.227 77.1776 129.119 77.1776 130.142C77.1776 131.156 76.9901 132.043 76.6151 132.801C76.2443 133.56 75.7244 134.15 75.0554 134.572C74.3906 134.994 73.6151 135.205 72.7287 135.205ZM72.7287 133.849C73.402 133.849 73.956 133.677 74.3906 133.332C74.8253 132.987 75.147 132.533 75.3558 131.97C75.5646 131.408 75.669 130.798 75.669 130.142C75.669 129.486 75.5646 128.874 75.3558 128.308C75.147 127.741 74.8253 127.283 74.3906 126.933C73.956 126.584 73.402 126.409 72.7287 126.409C72.0554 126.409 71.5014 126.584 71.0668 126.933C70.6321 127.283 70.3104 127.741 70.1016 128.308C69.8928 128.874 69.7884 129.486 69.7884 130.142C69.7884 130.798 69.8928 131.408 70.1016 131.97C70.3104 132.533 70.6321 132.987 71.0668 133.332C71.5014 133.677 72.0554 133.849 72.7287 133.849ZM80.9888 129.094V135H79.4803V125.182H80.9377V126.716H81.0655C81.2956 126.217 81.6451 125.817 82.1138 125.514C82.5826 125.207 83.1877 125.054 83.9292 125.054C84.5939 125.054 85.1756 125.19 85.6742 125.463C86.1728 125.732 86.5605 126.141 86.8375 126.69C87.1145 127.236 87.253 127.926 87.253 128.761V135H85.7445V128.864C85.7445 128.092 85.5442 127.491 85.1436 127.061C84.7431 126.626 84.1934 126.409 83.4945 126.409C83.013 126.409 82.5826 126.513 82.2033 126.722C81.8283 126.931 81.5321 127.236 81.3148 127.636C81.0975 128.037 80.9888 128.523 80.9888 129.094Z" fill="#787878"/>
<path d="M2.12216 59H0.460227L5.26705 45.9091H6.90341L11.7102 59H10.0483L6.13636 47.9801H6.03409L2.12216 59ZM2.7358 53.8864H9.43466V55.2926H2.7358V53.8864ZM13.5447 62.6818V49.1818H15.0021V50.7415H15.1811C15.2919 50.571 15.4453 50.3537 15.6413 50.0895C15.8416 49.821 16.1271 49.5824 16.4979 49.3736C16.8729 49.1605 17.38 49.054 18.0192 49.054C18.8459 49.054 19.5746 49.2607 20.2053 49.674C20.8359 50.0874 21.3281 50.6733 21.6818 51.4318C22.0355 52.1903 22.2124 53.0852 22.2124 54.1165C22.2124 55.1562 22.0355 56.0575 21.6818 56.8203C21.3281 57.5788 20.8381 58.1669 20.2116 58.5845C19.5852 58.9979 18.8629 59.2045 18.0447 59.2045C17.4141 59.2045 16.9091 59.1001 16.5298 58.8913C16.1506 58.6783 15.8587 58.4375 15.6541 58.169C15.4496 57.8963 15.2919 57.6705 15.1811 57.4915H15.0533V62.6818H13.5447ZM15.0277 54.0909C15.0277 54.8324 15.1364 55.4865 15.3537 56.0533C15.571 56.6158 15.8885 57.0568 16.3061 57.3764C16.7237 57.6918 17.2351 57.8494 17.8402 57.8494C18.4709 57.8494 18.9972 57.6832 19.419 57.3509C19.8452 57.0142 20.1648 56.5625 20.3778 55.9957C20.5952 55.4247 20.7038 54.7898 20.7038 54.0909C20.7038 53.4006 20.5973 52.7784 20.3842 52.2244C20.1754 51.6662 19.858 51.2251 19.4318 50.9013C19.0099 50.5732 18.4794 50.4091 17.8402 50.4091C17.2266 50.4091 16.7109 50.5646 16.2933 50.8757C15.8757 51.1825 15.5604 51.6129 15.3473 52.1669C15.1342 52.7166 15.0277 53.358 15.0277 54.0909ZM24.5135 62.6818V49.1818H25.9709V50.7415H26.1499C26.2607 50.571 26.4141 50.3537 26.6101 50.0895C26.8104 49.821 27.0959 49.5824 27.4666 49.3736C27.8416 49.1605 28.3487 49.054 28.9879 49.054C29.8146 49.054 30.5433 49.2607 31.174 49.674C31.8047 50.0874 32.2969 50.6733 32.6506 51.4318C33.0043 52.1903 33.1811 53.0852 33.1811 54.1165C33.1811 55.1562 33.0043 56.0575 32.6506 56.8203C32.2969 57.5788 31.8068 58.1669 31.1804 58.5845C30.554 58.9979 29.8317 59.2045 29.0135 59.2045C28.3828 59.2045 27.8778 59.1001 27.4986 58.8913C27.1193 58.6783 26.8274 58.4375 26.6229 58.169C26.4183 57.8963 26.2607 57.6705 26.1499 57.4915H26.022V62.6818H24.5135ZM25.9964 54.0909C25.9964 54.8324 26.1051 55.4865 26.3224 56.0533C26.5398 56.6158 26.8572 57.0568 27.2749 57.3764C27.6925 57.6918 28.2038 57.8494 28.8089 57.8494C29.4396 57.8494 29.9659 57.6832 30.3878 57.3509C30.8139 57.0142 31.1335 56.5625 31.3466 55.9957C31.5639 55.4247 31.6726 54.7898 31.6726 54.0909C31.6726 53.4006 31.5661 52.7784 31.353 52.2244C31.1442 51.6662 30.8267 51.2251 30.4006 50.9013C29.9787 50.5732 29.4482 50.4091 28.8089 50.4091C28.1953 50.4091 27.6797 50.5646 27.2621 50.8757C26.8445 51.1825 26.5291 51.6129 26.3161 52.1669C26.103 52.7166 25.9964 53.358 25.9964 54.0909ZM44.7891 59H40.7493V45.9091H44.968C46.2379 45.9091 47.3246 46.1712 48.228 46.6953C49.1314 47.2152 49.8239 47.9631 50.3054 48.9389C50.7869 49.9105 51.0277 51.0739 51.0277 52.429C51.0277 53.7926 50.7848 54.9666 50.299 55.951C49.8132 56.9311 49.1058 57.6854 48.1768 58.2138C47.2479 58.7379 46.1186 59 44.7891 59ZM42.3345 57.5938H44.6868C45.7692 57.5938 46.6662 57.3849 47.3778 56.9673C48.0895 56.5497 48.62 55.9553 48.9695 55.1839C49.3189 54.4126 49.4936 53.4943 49.4936 52.429C49.4936 51.3722 49.321 50.4624 48.9759 49.6996C48.6307 48.9325 48.1151 48.3445 47.429 47.9354C46.7429 47.522 45.8885 47.3153 44.8658 47.3153H42.3345V57.5938ZM57.5987 59.2045C56.6527 59.2045 55.8366 58.9957 55.1506 58.5781C54.4688 58.1562 53.9425 57.5682 53.5717 56.8139C53.2053 56.0554 53.022 55.1733 53.022 54.1676C53.022 53.1619 53.2053 52.2756 53.5717 51.5085C53.9425 50.7372 54.4581 50.1364 55.1186 49.706C55.7834 49.2713 56.5589 49.054 57.4453 49.054C57.9567 49.054 58.4616 49.1392 58.9602 49.3097C59.4588 49.4801 59.9126 49.7571 60.3217 50.1406C60.7308 50.5199 61.0568 51.0227 61.2997 51.6491C61.5426 52.2756 61.6641 53.0469 61.6641 53.9631V54.6023H54.0959V53.2983H60.13C60.13 52.7443 60.0192 52.25 59.7976 51.8153C59.5803 51.3807 59.2692 51.0376 58.8643 50.7862C58.4638 50.5348 57.9908 50.4091 57.4453 50.4091C56.8445 50.4091 56.3246 50.5582 55.8857 50.8565C55.451 51.1506 55.1165 51.5341 54.8821 52.0071C54.6477 52.4801 54.5305 52.9872 54.5305 53.5284V54.3977C54.5305 55.1392 54.6584 55.7678 54.9141 56.2834C55.174 56.7947 55.5341 57.1847 55.9943 57.4531C56.4545 57.7173 56.9893 57.8494 57.5987 57.8494C57.995 57.8494 58.353 57.794 58.6726 57.6832C58.9964 57.5682 59.2756 57.3977 59.5099 57.1719C59.7443 56.9418 59.9254 56.6562 60.0533 56.3153L61.5107 56.7244C61.3572 57.2188 61.0994 57.6534 60.7372 58.0284C60.375 58.3991 59.9276 58.6889 59.3949 58.8977C58.8622 59.1023 58.2635 59.2045 57.5987 59.2045ZM70.9134 51.3807L69.5582 51.7642C69.473 51.5384 69.3473 51.3189 69.1811 51.1058C69.0192 50.8885 68.7976 50.7095 68.5163 50.5689C68.2351 50.4283 67.875 50.358 67.4361 50.358C66.8352 50.358 66.3345 50.4964 65.9339 50.7734C65.5376 51.0462 65.3395 51.3935 65.3395 51.8153C65.3395 52.1903 65.4759 52.4865 65.7486 52.7038C66.0213 52.9212 66.4474 53.1023 67.027 53.2472L68.4844 53.6051C69.3622 53.8182 70.0163 54.1442 70.4467 54.5831C70.8771 55.0178 71.0923 55.5781 71.0923 56.2642C71.0923 56.8267 70.9304 57.3295 70.6065 57.7727C70.2869 58.2159 69.8395 58.5653 69.2642 58.821C68.6889 59.0767 68.0199 59.2045 67.2571 59.2045C66.2557 59.2045 65.4268 58.9872 64.7706 58.5526C64.1143 58.1179 63.6989 57.483 63.5241 56.6477L64.956 56.2898C65.0923 56.8182 65.3501 57.2145 65.7294 57.4787C66.1129 57.7429 66.6136 57.875 67.2315 57.875C67.9347 57.875 68.4929 57.7259 68.9062 57.4276C69.3239 57.125 69.5327 56.7628 69.5327 56.3409C69.5327 56 69.4134 55.7145 69.1747 55.4844C68.9361 55.25 68.5696 55.0753 68.0753 54.9602L66.4389 54.5767C65.5398 54.3636 64.8793 54.0334 64.4574 53.5859C64.0398 53.1342 63.831 52.5696 63.831 51.892C63.831 51.3381 63.9865 50.848 64.2976 50.4219C64.6129 49.9957 65.0412 49.6612 65.5824 49.4183C66.1278 49.1754 66.7457 49.054 67.4361 49.054C68.4077 49.054 69.1705 49.267 69.7244 49.6932C70.2827 50.1193 70.679 50.6818 70.9134 51.3807ZM73.3631 59V49.1818H74.8716V59H73.3631ZM74.1301 47.5455C73.8361 47.5455 73.5826 47.4453 73.3695 47.245C73.1607 47.0447 73.0563 46.804 73.0563 46.5227C73.0563 46.2415 73.1607 46.0007 73.3695 45.8004C73.5826 45.6001 73.8361 45.5 74.1301 45.5C74.4242 45.5 74.6756 45.6001 74.8844 45.8004C75.0975 46.0007 75.204 46.2415 75.204 46.5227C75.204 46.804 75.0975 47.0447 74.8844 47.245C74.6756 47.4453 74.4242 47.5455 74.1301 47.5455ZM81.5977 62.8864C80.869 62.8864 80.2425 62.7926 79.7184 62.6051C79.1942 62.4219 78.7575 62.179 78.408 61.8764C78.0629 61.5781 77.788 61.2585 77.5835 60.9176L78.7852 60.0739C78.9215 60.2528 79.0941 60.4574 79.3029 60.6875C79.5117 60.9219 79.7972 61.1243 80.1594 61.2947C80.5259 61.4695 81.0053 61.5568 81.5977 61.5568C82.3903 61.5568 83.0444 61.3651 83.56 60.9815C84.0756 60.598 84.3335 59.9972 84.3335 59.179V57.1847H84.2056C84.0948 57.3636 83.9371 57.5852 83.7326 57.8494C83.5323 58.1094 83.2425 58.3416 82.8633 58.5462C82.4883 58.7464 81.9812 58.8466 81.342 58.8466C80.5494 58.8466 79.8377 58.6591 79.207 58.2841C78.5806 57.9091 78.0842 57.3636 77.7177 56.6477C77.3555 55.9318 77.1744 55.0625 77.1744 54.0398C77.1744 53.0341 77.3512 52.1584 77.7049 51.4126C78.0586 50.6626 78.5508 50.0831 79.1815 49.674C79.8121 49.2607 80.5408 49.054 81.3675 49.054C82.0067 49.054 82.5138 49.1605 82.8888 49.3736C83.2681 49.5824 83.5579 49.821 83.7582 50.0895C83.9627 50.3537 84.1204 50.571 84.2312 50.7415H84.3846V49.1818H85.842V59.2812C85.842 60.125 85.6502 60.8111 85.2667 61.3395C84.8874 61.8722 84.3761 62.2621 83.7326 62.5092C83.0934 62.7607 82.3817 62.8864 81.5977 62.8864ZM81.5465 57.4915C82.1516 57.4915 82.663 57.353 83.0806 57.076C83.4982 56.799 83.8157 56.4006 84.033 55.8807C84.2504 55.3608 84.359 54.7386 84.359 54.0142C84.359 53.3068 84.2525 52.6825 84.0394 52.1413C83.8263 51.6001 83.511 51.1761 83.0934 50.8693C82.6758 50.5625 82.1602 50.4091 81.5465 50.4091C80.9073 50.4091 80.3746 50.571 79.9485 50.8949C79.5266 51.2187 79.2092 51.6534 78.9961 52.1989C78.7873 52.7443 78.6829 53.3494 78.6829 54.0142C78.6829 54.696 78.7894 55.299 79.0025 55.8232C79.2198 56.343 79.5394 56.7521 79.9613 57.0504C80.3874 57.3445 80.9158 57.4915 81.5465 57.4915ZM90.1119 53.0938V59H88.6033V49.1818H90.0607V50.7159H90.1886C90.4187 50.2173 90.7681 49.8168 91.2369 49.5142C91.7056 49.2074 92.3107 49.054 93.0522 49.054C93.717 49.054 94.2987 49.1903 94.7972 49.4631C95.2958 49.7315 95.6836 50.1406 95.9606 50.6903C96.2376 51.2358 96.3761 51.9261 96.3761 52.7614V59H94.8675V52.8636C94.8675 52.0923 94.6673 51.4915 94.2667 51.0611C93.8661 50.6264 93.3164 50.4091 92.6175 50.4091C92.136 50.4091 91.7056 50.5135 91.3263 50.7223C90.9513 50.9311 90.6552 51.2358 90.4379 51.6364C90.2205 52.0369 90.1119 52.5227 90.1119 53.0938Z" fill="#787878"/>
<path d="M5.625 97H1.58523V83.9091H5.80398C7.07386 83.9091 8.16051 84.1712 9.06392 84.6953C9.96733 85.2152 10.6598 85.9631 11.1413 86.9389C11.6229 87.9105 11.8636 89.0739 11.8636 90.429C11.8636 91.7926 11.6207 92.9666 11.1349 93.951C10.6491 94.9311 9.94176 95.6854 9.01278 96.2138C8.08381 96.7379 6.95455 97 5.625 97ZM3.17045 95.5938H5.52273C6.60511 95.5938 7.50213 95.3849 8.21378 94.9673C8.92543 94.5497 9.45597 93.9553 9.8054 93.1839C10.1548 92.4126 10.3295 91.4943 10.3295 90.429C10.3295 89.3722 10.157 88.4624 9.81179 87.6996C9.46662 86.9325 8.95099 86.3445 8.26491 85.9354C7.57884 85.522 6.72443 85.3153 5.7017 85.3153H3.17045V95.5938ZM17.2074 97.2301C16.5852 97.2301 16.0206 97.1129 15.5135 96.8786C15.0064 96.6399 14.6037 96.2969 14.3054 95.8494C14.0071 95.3977 13.858 94.8523 13.858 94.2131C13.858 93.6506 13.9688 93.1946 14.1903 92.8452C14.4119 92.4915 14.7081 92.2145 15.0788 92.0142C15.4496 91.8139 15.8587 91.6648 16.3061 91.5668C16.7578 91.4645 17.2116 91.3835 17.6676 91.3239C18.2642 91.2472 18.7479 91.1896 19.1186 91.1513C19.4936 91.1087 19.7663 91.0384 19.9368 90.9403C20.1115 90.8423 20.1989 90.6719 20.1989 90.429V90.3778C20.1989 89.7472 20.0263 89.2571 19.6811 88.9077C19.3402 88.5582 18.8224 88.3835 18.1278 88.3835C17.4077 88.3835 16.843 88.5412 16.4339 88.8565C16.0249 89.1719 15.7372 89.5085 15.571 89.8665L14.1392 89.3551C14.3949 88.7585 14.7358 88.294 15.1619 87.9616C15.5923 87.625 16.0611 87.3906 16.5682 87.2585C17.0795 87.1222 17.5824 87.054 18.0767 87.054C18.392 87.054 18.7543 87.0923 19.1634 87.169C19.5767 87.2415 19.9751 87.3928 20.3587 87.6229C20.7464 87.853 21.0682 88.2003 21.3239 88.6648C21.5795 89.1293 21.7074 89.7514 21.7074 90.5312V97H20.1989V95.6705H20.1222C20.0199 95.8835 19.8494 96.1115 19.6108 96.3544C19.3722 96.5973 19.0547 96.804 18.6584 96.9744C18.2621 97.1449 17.7784 97.2301 17.2074 97.2301ZM17.4375 95.875C18.0341 95.875 18.5369 95.7578 18.946 95.5234C19.3594 95.2891 19.6705 94.9865 19.8793 94.6158C20.0923 94.245 20.1989 93.8551 20.1989 93.446V92.0653C20.1349 92.142 19.9943 92.2124 19.777 92.2763C19.5639 92.3359 19.3168 92.3892 19.0355 92.4361C18.7585 92.4787 18.4879 92.517 18.2237 92.5511C17.9638 92.581 17.7528 92.6065 17.5909 92.6278C17.1989 92.679 16.8324 92.7621 16.4915 92.8771C16.1548 92.9879 15.8821 93.1562 15.6733 93.3821C15.4688 93.6037 15.3665 93.9062 15.3665 94.2898C15.3665 94.8139 15.5604 95.2102 15.9482 95.4787C16.3402 95.7429 16.8366 95.875 17.4375 95.875ZM31.4153 89.3807L30.0602 89.7642C29.975 89.5384 29.8493 89.3189 29.6831 89.1058C29.5211 88.8885 29.2995 88.7095 29.0183 88.5689C28.737 88.4283 28.377 88.358 27.938 88.358C27.3372 88.358 26.8365 88.4964 26.4359 88.7734C26.0396 89.0462 25.8414 89.3935 25.8414 89.8153C25.8414 90.1903 25.9778 90.4865 26.2505 90.7038C26.5233 90.9212 26.9494 91.1023 27.5289 91.2472L28.9863 91.6051C29.8642 91.8182 30.5183 92.1442 30.9487 92.5831C31.3791 93.0178 31.5943 93.5781 31.5943 94.2642C31.5943 94.8267 31.4324 95.3295 31.1085 95.7727C30.7889 96.2159 30.3414 96.5653 29.7662 96.821C29.1909 97.0767 28.5218 97.2045 27.7591 97.2045C26.7576 97.2045 25.9288 96.9872 25.2725 96.5526C24.6163 96.1179 24.2008 95.483 24.0261 94.6477L25.4579 94.2898C25.5943 94.8182 25.8521 95.2145 26.2314 95.4787C26.6149 95.7429 27.1156 95.875 27.7335 95.875C28.4366 95.875 28.9949 95.7259 29.4082 95.4276C29.8258 95.125 30.0346 94.7628 30.0346 94.3409C30.0346 94 29.9153 93.7145 29.6767 93.4844C29.438 93.25 29.0716 93.0753 28.5772 92.9602L26.9409 92.5767C26.0417 92.3636 25.3812 92.0334 24.9593 91.5859C24.5417 91.1342 24.3329 90.5696 24.3329 89.892C24.3329 89.3381 24.4885 88.848 24.7995 88.4219C25.1149 87.9957 25.5431 87.6612 26.0843 87.4183C26.6298 87.1754 27.2477 87.054 27.938 87.054C28.9096 87.054 29.6724 87.267 30.2264 87.6932C30.7846 88.1193 31.1809 88.6818 31.4153 89.3807ZM35.3736 91.0938V97H33.8651V83.9091H35.3736V88.7159H35.5014C35.7315 88.2088 36.0767 87.8061 36.5369 87.5078C37.0014 87.2053 37.6193 87.054 38.3906 87.054C39.0597 87.054 39.6456 87.1882 40.1484 87.4567C40.6513 87.7209 41.0412 88.1278 41.3182 88.6776C41.5994 89.223 41.7401 89.9176 41.7401 90.7614V97H40.2315V90.8636C40.2315 90.0838 40.0291 89.4808 39.6243 89.0547C39.2237 88.6243 38.6676 88.4091 37.956 88.4091C37.4616 88.4091 37.0185 88.5135 36.6264 88.7223C36.2386 88.9311 35.9318 89.2358 35.706 89.6364C35.4844 90.0369 35.3736 90.5227 35.3736 91.0938ZM44.7044 97V83.9091H46.2129V88.7415H46.3407C46.4515 88.571 46.6049 88.3537 46.801 88.0895C47.0012 87.821 47.2868 87.5824 47.6575 87.3736C48.0325 87.1605 48.5396 87.054 49.1788 87.054C50.0055 87.054 50.7342 87.2607 51.3649 87.674C51.9956 88.0874 52.4877 88.6733 52.8414 89.4318C53.1951 90.1903 53.372 91.0852 53.372 92.1165C53.372 93.1562 53.1951 94.0575 52.8414 94.8203C52.4877 95.5788 51.9977 96.1669 51.3713 96.5845C50.7449 96.9979 50.0225 97.2045 49.2044 97.2045C48.5737 97.2045 48.0687 97.1001 47.6895 96.8913C47.3102 96.6783 47.0183 96.4375 46.8137 96.169C46.6092 95.8963 46.4515 95.6705 46.3407 95.4915H46.1618V97H44.7044ZM46.1873 92.0909C46.1873 92.8324 46.296 93.4865 46.5133 94.0533C46.7306 94.6158 47.0481 95.0568 47.4657 95.3764C47.8833 95.6918 48.3947 95.8494 48.9998 95.8494C49.6305 95.8494 50.1568 95.6832 50.5787 95.3509C51.0048 95.0142 51.3244 94.5625 51.5375 93.9957C51.7548 93.4247 51.8635 92.7898 51.8635 92.0909C51.8635 91.4006 51.7569 90.7784 51.5439 90.2244C51.335 89.6662 51.0176 89.2251 50.5914 88.9013C50.1696 88.5732 49.639 88.4091 48.9998 88.4091C48.3862 88.4091 47.8706 88.5646 47.4529 88.8757C47.0353 89.1825 46.72 89.6129 46.5069 90.1669C46.2939 90.7166 46.1873 91.358 46.1873 92.0909ZM59.6681 97.2045C58.7818 97.2045 58.0041 96.9936 57.335 96.5717C56.6703 96.1499 56.1504 95.5597 55.7754 94.8011C55.4047 94.0426 55.2193 93.1562 55.2193 92.142C55.2193 91.1193 55.4047 90.2266 55.7754 89.4638C56.1504 88.701 56.6703 88.1087 57.335 87.6868C58.0041 87.2649 58.7818 87.054 59.6681 87.054C60.5545 87.054 61.3301 87.2649 61.9949 87.6868C62.6639 88.1087 63.1838 88.701 63.5545 89.4638C63.9295 90.2266 64.117 91.1193 64.117 92.142C64.117 93.1562 63.9295 94.0426 63.5545 94.8011C63.1838 95.5597 62.6639 96.1499 61.9949 96.5717C61.3301 96.9936 60.5545 97.2045 59.6681 97.2045ZM59.6681 95.8494C60.3414 95.8494 60.8954 95.6768 61.3301 95.3317C61.7647 94.9865 62.0865 94.5327 62.2953 93.9702C62.5041 93.4077 62.6085 92.7983 62.6085 92.142C62.6085 91.4858 62.5041 90.8743 62.2953 90.3075C62.0865 89.7408 61.7647 89.2827 61.3301 88.9332C60.8954 88.5838 60.3414 88.4091 59.6681 88.4091C58.9949 88.4091 58.4409 88.5838 58.0062 88.9332C57.5716 89.2827 57.2498 89.7408 57.041 90.3075C56.8322 90.8743 56.7278 91.4858 56.7278 92.142C56.7278 92.7983 56.8322 93.4077 57.041 93.9702C57.2498 94.5327 57.5716 94.9865 58.0062 95.3317C58.4409 95.6768 58.9949 95.8494 59.6681 95.8494ZM69.3089 97.2301C68.6868 97.2301 68.1222 97.1129 67.6151 96.8786C67.108 96.6399 66.7053 96.2969 66.407 95.8494C66.1087 95.3977 65.9595 94.8523 65.9595 94.2131C65.9595 93.6506 66.0703 93.1946 66.2919 92.8452C66.5135 92.4915 66.8097 92.2145 67.1804 92.0142C67.5511 91.8139 67.9602 91.6648 68.4077 91.5668C68.8594 91.4645 69.3132 91.3835 69.7692 91.3239C70.3658 91.2472 70.8494 91.1896 71.2202 91.1513C71.5952 91.1087 71.8679 91.0384 72.0384 90.9403C72.2131 90.8423 72.3004 90.6719 72.3004 90.429V90.3778C72.3004 89.7472 72.1278 89.2571 71.7827 88.9077C71.4418 88.5582 70.924 88.3835 70.2294 88.3835C69.5092 88.3835 68.9446 88.5412 68.5355 88.8565C68.1264 89.1719 67.8388 89.5085 67.6726 89.8665L66.2408 89.3551C66.4964 88.7585 66.8374 88.294 67.2635 87.9616C67.6939 87.625 68.1626 87.3906 68.6697 87.2585C69.1811 87.1222 69.6839 87.054 70.1783 87.054C70.4936 87.054 70.8558 87.0923 71.2649 87.169C71.6783 87.2415 72.0767 87.3928 72.4602 87.6229C72.848 87.853 73.1697 88.2003 73.4254 88.6648C73.6811 89.1293 73.8089 89.7514 73.8089 90.5312V97H72.3004V95.6705H72.2237C72.1214 95.8835 71.951 96.1115 71.7124 96.3544C71.4737 96.5973 71.1563 96.804 70.7599 96.9744C70.3636 97.1449 69.88 97.2301 69.3089 97.2301ZM69.5391 95.875C70.1357 95.875 70.6385 95.7578 71.0476 95.5234C71.4609 95.2891 71.772 94.9865 71.9808 94.6158C72.1939 94.245 72.3004 93.8551 72.3004 93.446V92.0653C72.2365 92.142 72.0959 92.2124 71.8786 92.2763C71.6655 92.3359 71.4183 92.3892 71.1371 92.4361C70.8601 92.4787 70.5895 92.517 70.3253 92.5511C70.0653 92.581 69.8544 92.6065 69.6925 92.6278C69.3004 92.679 68.9339 92.7621 68.593 92.8771C68.2564 92.9879 67.9837 93.1562 67.7749 93.3821C67.5703 93.6037 67.468 93.9062 67.468 94.2898C67.468 94.8139 67.6619 95.2102 68.0497 95.4787C68.4418 95.7429 68.9382 95.875 69.5391 95.875ZM76.5623 97V87.1818H78.0197V88.6648H78.122C78.301 88.179 78.6248 87.7848 79.0936 87.4822C79.5623 87.1797 80.0907 87.0284 80.6788 87.0284C80.7896 87.0284 80.9281 87.0305 81.0943 87.0348C81.2605 87.0391 81.3862 87.0455 81.4714 87.054V88.5881C81.4203 88.5753 81.3031 88.5561 81.1199 88.5305C80.9409 88.5007 80.7512 88.4858 80.551 88.4858C80.0737 88.4858 79.6476 88.5859 79.2725 88.7862C78.9018 88.9822 78.6078 89.255 78.3904 89.6044C78.1774 89.9496 78.0708 90.3437 78.0708 90.7869V97H76.5623ZM86.6681 97.2045C85.85 97.2045 85.1277 96.9979 84.5012 96.5845C83.8748 96.1669 83.3848 95.5788 83.0311 94.8203C82.6774 94.0575 82.5005 93.1562 82.5005 92.1165C82.5005 91.0852 82.6774 90.1903 83.0311 89.4318C83.3848 88.6733 83.877 88.0874 84.5076 87.674C85.1383 87.2607 85.867 87.054 86.6937 87.054C87.3329 87.054 87.8379 87.1605 88.2086 87.3736C88.5836 87.5824 88.8691 87.821 89.0652 88.0895C89.2654 88.3537 89.421 88.571 89.5318 88.7415H89.6596V83.9091H91.1681V97H89.7108V95.4915H89.5318C89.421 95.6705 89.2633 95.8963 89.0588 96.169C88.8542 96.4375 88.5623 96.6783 88.1831 96.8913C87.8038 97.1001 87.2988 97.2045 86.6681 97.2045ZM86.8727 95.8494C87.4778 95.8494 87.9892 95.6918 88.4068 95.3764C88.8244 95.0568 89.1419 94.6158 89.3592 94.0533C89.5765 93.4865 89.6852 92.8324 89.6852 92.0909C89.6852 91.358 89.5787 90.7166 89.3656 90.1669C89.1525 89.6129 88.8372 89.1825 88.4196 88.8757C88.002 88.5646 87.4863 88.4091 86.8727 88.4091C86.2335 88.4091 85.7008 88.5732 85.2747 88.9013C84.8528 89.2251 84.5353 89.6662 84.3223 90.2244C84.1135 90.7784 84.0091 91.4006 84.0091 92.0909C84.0091 92.7898 84.1156 93.4247 84.3287 93.9957C84.546 94.5625 84.8656 95.0142 85.2875 95.3509C85.7136 95.6832 86.242 95.8494 86.8727 95.8494Z" fill="#787878"/>
<path d="M5.625 173H1.58523V159.909H5.80398C7.07386 159.909 8.16051 160.171 9.06392 160.695C9.96733 161.215 10.6598 161.963 11.1413 162.939C11.6229 163.911 11.8636 165.074 11.8636 166.429C11.8636 167.793 11.6207 168.967 11.1349 169.951C10.6491 170.931 9.94176 171.685 9.01278 172.214C8.08381 172.738 6.95455 173 5.625 173ZM3.17045 171.594H5.52273C6.60511 171.594 7.50213 171.385 8.21378 170.967C8.92543 170.55 9.45597 169.955 9.8054 169.184C10.1548 168.413 10.3295 167.494 10.3295 166.429C10.3295 165.372 10.157 164.462 9.81179 163.7C9.46662 162.933 8.95099 162.344 8.26491 161.935C7.57884 161.522 6.72443 161.315 5.7017 161.315H3.17045V171.594ZM18.4347 173.205C17.4886 173.205 16.6726 172.996 15.9865 172.578C15.3047 172.156 14.7784 171.568 14.4077 170.814C14.0412 170.055 13.858 169.173 13.858 168.168C13.858 167.162 14.0412 166.276 14.4077 165.509C14.7784 164.737 15.294 164.136 15.9545 163.706C16.6193 163.271 17.3949 163.054 18.2812 163.054C18.7926 163.054 19.2976 163.139 19.7962 163.31C20.2947 163.48 20.7486 163.757 21.1577 164.141C21.5668 164.52 21.8928 165.023 22.1357 165.649C22.3786 166.276 22.5 167.047 22.5 167.963V168.602H14.9318V167.298H20.9659C20.9659 166.744 20.8551 166.25 20.6335 165.815C20.4162 165.381 20.1051 165.038 19.7003 164.786C19.2997 164.535 18.8267 164.409 18.2812 164.409C17.6804 164.409 17.1605 164.558 16.7216 164.857C16.2869 165.151 15.9524 165.534 15.718 166.007C15.4837 166.48 15.3665 166.987 15.3665 167.528V168.398C15.3665 169.139 15.4943 169.768 15.75 170.283C16.0099 170.795 16.37 171.185 16.8303 171.453C17.2905 171.717 17.8253 171.849 18.4347 171.849C18.831 171.849 19.1889 171.794 19.5085 171.683C19.8324 171.568 20.1115 171.398 20.3459 171.172C20.5803 170.942 20.7614 170.656 20.8892 170.315L22.3466 170.724C22.1932 171.219 21.9354 171.653 21.5732 172.028C21.2109 172.399 20.7635 172.689 20.2308 172.898C19.6982 173.102 19.0994 173.205 18.4347 173.205ZM32.5243 163.182L28.8936 173H27.3596L23.7289 163.182H25.3652L28.0755 171.006H28.1777L30.888 163.182H32.5243ZM38.2804 173.205C37.3343 173.205 36.5183 172.996 35.8322 172.578C35.1504 172.156 34.6241 171.568 34.2534 170.814C33.8869 170.055 33.7037 169.173 33.7037 168.168C33.7037 167.162 33.8869 166.276 34.2534 165.509C34.6241 164.737 35.1397 164.136 35.8002 163.706C36.465 163.271 37.2406 163.054 38.127 163.054C38.6383 163.054 39.1433 163.139 39.6419 163.31C40.1404 163.48 40.5943 163.757 41.0034 164.141C41.4125 164.52 41.7385 165.023 41.9814 165.649C42.2243 166.276 42.3457 167.047 42.3457 167.963V168.602H34.7775V167.298H40.8116C40.8116 166.744 40.7008 166.25 40.4792 165.815C40.2619 165.381 39.9508 165.038 39.546 164.786C39.1454 164.535 38.6724 164.409 38.127 164.409C37.5261 164.409 37.0062 164.558 36.5673 164.857C36.1326 165.151 35.7981 165.534 35.5637 166.007C35.3294 166.48 35.2122 166.987 35.2122 167.528V168.398C35.2122 169.139 35.34 169.768 35.5957 170.283C35.8556 170.795 36.2157 171.185 36.676 171.453C37.1362 171.717 37.671 171.849 38.2804 171.849C38.6767 171.849 39.0346 171.794 39.3542 171.683C39.6781 171.568 39.9572 171.398 40.1916 171.172C40.426 170.942 40.6071 170.656 40.7349 170.315L42.1923 170.724C42.0389 171.219 41.7811 171.653 41.4189 172.028C41.0566 172.399 40.6092 172.689 40.0765 172.898C39.5439 173.102 38.9451 173.205 38.2804 173.205ZM46.149 159.909V173H44.6404V159.909H46.149ZM52.9006 173.205C52.0142 173.205 51.2365 172.994 50.5675 172.572C49.9027 172.15 49.3828 171.56 49.0078 170.801C48.6371 170.043 48.4517 169.156 48.4517 168.142C48.4517 167.119 48.6371 166.227 49.0078 165.464C49.3828 164.701 49.9027 164.109 50.5675 163.687C51.2365 163.265 52.0142 163.054 52.9006 163.054C53.7869 163.054 54.5625 163.265 55.2273 163.687C55.8963 164.109 56.4162 164.701 56.7869 165.464C57.1619 166.227 57.3494 167.119 57.3494 168.142C57.3494 169.156 57.1619 170.043 56.7869 170.801C56.4162 171.56 55.8963 172.15 55.2273 172.572C54.5625 172.994 53.7869 173.205 52.9006 173.205ZM52.9006 171.849C53.5739 171.849 54.1278 171.677 54.5625 171.332C54.9972 170.987 55.3189 170.533 55.5277 169.97C55.7365 169.408 55.8409 168.798 55.8409 168.142C55.8409 167.486 55.7365 166.874 55.5277 166.308C55.3189 165.741 54.9972 165.283 54.5625 164.933C54.1278 164.584 53.5739 164.409 52.9006 164.409C52.2273 164.409 51.6733 164.584 51.2386 164.933C50.804 165.283 50.4822 165.741 50.2734 166.308C50.0646 166.874 49.9602 167.486 49.9602 168.142C49.9602 168.798 50.0646 169.408 50.2734 169.97C50.4822 170.533 50.804 170.987 51.2386 171.332C51.6733 171.677 52.2273 171.849 52.9006 171.849ZM59.6522 176.682V163.182H61.1096V164.741H61.2885C61.3993 164.571 61.5527 164.354 61.7488 164.089C61.949 163.821 62.2346 163.582 62.6053 163.374C62.9803 163.161 63.4874 163.054 64.1266 163.054C64.9533 163.054 65.682 163.261 66.3127 163.674C66.9434 164.087 67.4355 164.673 67.7892 165.432C68.1429 166.19 68.3198 167.085 68.3198 168.116C68.3198 169.156 68.1429 170.058 67.7892 170.82C67.4355 171.579 66.9455 172.167 66.3191 172.585C65.6926 172.998 64.9703 173.205 64.1522 173.205C63.5215 173.205 63.0165 173.1 62.6373 172.891C62.258 172.678 61.9661 172.437 61.7615 172.169C61.557 171.896 61.3993 171.67 61.2885 171.491H61.1607V176.682H59.6522ZM61.1351 168.091C61.1351 168.832 61.2438 169.487 61.4611 170.053C61.6784 170.616 61.9959 171.057 62.4135 171.376C62.8311 171.692 63.3425 171.849 63.9476 171.849C64.5783 171.849 65.1046 171.683 65.5265 171.351C65.9526 171.014 66.2722 170.562 66.4853 169.996C66.7026 169.425 66.8113 168.79 66.8113 168.091C66.8113 167.401 66.7047 166.778 66.4917 166.224C66.2828 165.666 65.9654 165.225 65.5392 164.901C65.1174 164.573 64.5868 164.409 63.9476 164.409C63.334 164.409 62.8184 164.565 62.4007 164.876C61.9831 165.183 61.6678 165.613 61.4547 166.167C61.2417 166.717 61.1351 167.358 61.1351 168.091ZM70.6209 173V163.182H72.0783V164.716H72.2061C72.4107 164.192 72.7409 163.785 73.1969 163.495C73.6529 163.201 74.2005 163.054 74.8397 163.054C75.4874 163.054 76.0265 163.201 76.4569 163.495C76.8915 163.785 77.2303 164.192 77.4732 164.716H77.5755C77.8269 164.209 78.204 163.806 78.7069 163.508C79.2097 163.205 79.8127 163.054 80.5158 163.054C81.3936 163.054 82.1117 163.329 82.6699 163.879C83.2282 164.424 83.5073 165.274 83.5073 166.429V173H81.9988V166.429C81.9988 165.705 81.8006 165.187 81.4043 164.876C81.008 164.565 80.5414 164.409 80.0044 164.409C79.3141 164.409 78.7793 164.618 78.4 165.036C78.0208 165.449 77.8311 165.973 77.8311 166.608V173H76.2971V166.276C76.2971 165.717 76.1159 165.268 75.7537 164.927C75.3915 164.582 74.9249 164.409 74.3539 164.409C73.9618 164.409 73.5953 164.513 73.2544 164.722C72.9178 164.931 72.6451 165.221 72.4363 165.592C72.2317 165.958 72.1294 166.382 72.1294 166.864V173H70.6209ZM90.3819 173.205C89.4359 173.205 88.6199 172.996 87.9338 172.578C87.252 172.156 86.7257 171.568 86.3549 170.814C85.9885 170.055 85.8052 169.173 85.8052 168.168C85.8052 167.162 85.9885 166.276 86.3549 165.509C86.7257 164.737 87.2413 164.136 87.9018 163.706C88.5666 163.271 89.3422 163.054 90.2285 163.054C90.7399 163.054 91.2449 163.139 91.7434 163.31C92.242 163.48 92.6958 163.757 93.1049 164.141C93.514 164.52 93.84 165.023 94.0829 165.649C94.3258 166.276 94.4473 167.047 94.4473 167.963V168.602H86.8791V167.298H92.9132C92.9132 166.744 92.8024 166.25 92.5808 165.815C92.3635 165.381 92.0524 165.038 91.6476 164.786C91.247 164.535 90.774 164.409 90.2285 164.409C89.6277 164.409 89.1078 164.558 88.6689 164.857C88.2342 165.151 87.8997 165.534 87.6653 166.007C87.4309 166.48 87.3137 166.987 87.3137 167.528V168.398C87.3137 169.139 87.4416 169.768 87.6973 170.283C87.9572 170.795 88.3173 171.185 88.7775 171.453C89.2377 171.717 89.7726 171.849 90.3819 171.849C90.7782 171.849 91.1362 171.794 91.4558 171.683C91.7797 171.568 92.0588 171.398 92.2931 171.172C92.5275 170.942 92.7086 170.656 92.8365 170.315L94.2939 170.724C94.1404 171.219 93.8826 171.653 93.5204 172.028C93.1582 172.399 92.7108 172.689 92.1781 172.898C91.6454 173.102 91.0467 173.205 90.3819 173.205ZM98.2505 167.094V173H96.742V163.182H98.1994V164.716H98.3272C98.5574 164.217 98.9068 163.817 99.3755 163.514C99.8443 163.207 100.449 163.054 101.191 163.054C101.856 163.054 102.437 163.19 102.936 163.463C103.434 163.732 103.822 164.141 104.099 164.69C104.376 165.236 104.515 165.926 104.515 166.761V173H103.006V166.864C103.006 166.092 102.806 165.491 102.405 165.061C102.005 164.626 101.455 164.409 100.756 164.409C100.275 164.409 99.8443 164.513 99.465 164.722C99.09 164.931 98.7939 165.236 98.5765 165.636C98.3592 166.037 98.2505 166.523 98.2505 167.094ZM111.541 163.182V164.46H106.453V163.182H111.541ZM107.936 160.83H109.445V170.188C109.445 170.614 109.506 170.933 109.63 171.146C109.758 171.355 109.92 171.496 110.116 171.568C110.316 171.636 110.527 171.67 110.749 171.67C110.915 171.67 111.051 171.662 111.158 171.645C111.264 171.624 111.349 171.607 111.413 171.594L111.72 172.949C111.618 172.987 111.475 173.026 111.292 173.064C111.109 173.107 110.876 173.128 110.595 173.128C110.169 173.128 109.751 173.036 109.342 172.853C108.938 172.67 108.601 172.391 108.332 172.016C108.068 171.641 107.936 171.168 107.936 170.597V160.83Z" fill="#787878"/>
</svg>
