<svg width="208" height="142" viewBox="0 0 208 142" fill="none" xmlns="http://www.w3.org/2000/svg">
<path d="M5.21591 18.6989V10.2614H6.64773V18.6989H5.21591ZM1.71307 15.196V13.7642H10.1506V15.196H1.71307ZM17.4902 21.179C16.5272 21.179 15.7069 20.9169 15.0293 20.3928C14.3517 19.8643 13.834 19.0994 13.476 18.098C13.1181 17.0923 12.9391 15.8778 12.9391 14.4545C12.9391 13.0398 13.1181 11.8317 13.476 10.8303C13.8382 9.82457 14.3581 9.05753 15.0357 8.52912C15.7175 7.99645 16.5357 7.73011 17.4902 7.73011C18.4448 7.73011 19.2608 7.99645 19.9384 8.52912C20.6202 9.05753 21.1401 9.82457 21.498 10.8303C21.8603 11.8317 22.0414 13.0398 22.0414 14.4545C22.0414 15.8778 21.8624 17.0923 21.5044 18.098C21.1465 19.0994 20.6287 19.8643 19.9512 20.3928C19.2736 20.9169 18.4533 21.179 17.4902 21.179ZM17.4902 19.7727C18.4448 19.7727 19.1863 19.3125 19.7147 18.392C20.2431 17.4716 20.5073 16.1591 20.5073 14.4545C20.5073 13.321 20.3858 12.3558 20.1429 11.5589C19.9043 10.7621 19.5591 10.1548 19.1074 9.73722C18.66 9.3196 18.1209 9.1108 17.4902 9.1108C16.5442 9.1108 15.8049 9.57741 15.2722 10.5107C14.7395 11.4396 14.4732 12.7543 14.4732 14.4545C14.4732 15.5881 14.5925 16.5511 14.8311 17.3438C15.0698 18.1364 15.4128 18.7393 15.8603 19.1527C16.312 19.5661 16.8553 19.7727 17.4902 19.7727ZM28.7402 21.179C27.7772 21.179 26.9569 20.9169 26.2793 20.3928C25.6017 19.8643 25.084 19.0994 24.726 18.098C24.3681 17.0923 24.1891 15.8778 24.1891 14.4545C24.1891 13.0398 24.3681 11.8317 24.726 10.8303C25.0882 9.82457 25.6081 9.05753 26.2857 8.52912C26.9675 7.99645 27.7857 7.73011 28.7402 7.73011C29.6948 7.73011 30.5108 7.99645 31.1884 8.52912C31.8702 9.05753 32.3901 9.82457 32.748 10.8303C33.1103 11.8317 33.2914 13.0398 33.2914 14.4545C33.2914 15.8778 33.1124 17.0923 32.7544 18.098C32.3965 19.0994 31.8787 19.8643 31.2012 20.3928C30.5236 20.9169 29.7033 21.179 28.7402 21.179ZM28.7402 19.7727C29.6948 19.7727 30.4363 19.3125 30.9647 18.392C31.4931 17.4716 31.7573 16.1591 31.7573 14.4545C31.7573 13.321 31.6358 12.3558 31.3929 11.5589C31.1543 10.7621 30.8091 10.1548 30.3574 9.73722C29.91 9.3196 29.3709 9.1108 28.7402 9.1108C27.7942 9.1108 27.0549 9.57741 26.5222 10.5107C25.9895 11.4396 25.7232 12.7543 25.7232 14.4545C25.7232 15.5881 25.8425 16.5511 26.0811 17.3438C26.3198 18.1364 26.6628 18.7393 27.1103 19.1527C27.562 19.5661 28.1053 19.7727 28.7402 19.7727ZM44.976 21.179C44.0982 21.179 43.3226 21.0234 42.6493 20.7124C41.9803 20.397 41.4583 19.9645 41.0833 19.4148C40.7083 18.8608 40.5229 18.2301 40.5272 17.5227C40.5229 16.9687 40.6316 16.4574 40.8532 15.9886C41.0748 15.5156 41.3773 15.1214 41.7608 14.8061C42.1486 14.4865 42.5811 14.2841 43.0584 14.1989V14.1222C42.432 13.9602 41.9334 13.6087 41.5627 13.0675C41.1919 12.522 41.0087 11.902 41.013 11.2074C41.0087 10.5426 41.177 9.94815 41.5179 9.42401C41.8588 8.89986 42.3276 8.48651 42.9242 8.18395C43.525 7.88139 44.209 7.73011 44.976 7.73011C45.7346 7.73011 46.4121 7.88139 47.0087 8.18395C47.6053 8.48651 48.074 8.89986 48.415 9.42401C48.7601 9.94815 48.9348 10.5426 48.9391 11.2074C48.9348 11.902 48.7452 12.522 48.3702 13.0675C47.9995 13.6087 47.5073 13.9602 46.8936 14.1222V14.1989C47.3667 14.2841 47.7928 14.4865 48.1721 14.8061C48.5513 15.1214 48.8539 15.5156 49.0797 15.9886C49.3056 16.4574 49.4206 16.9687 49.4249 17.5227C49.4206 18.2301 49.2289 18.8608 48.8496 19.4148C48.4746 19.9645 47.9526 20.397 47.2836 20.7124C46.6188 21.0234 45.8496 21.179 44.976 21.179ZM44.976 19.7727C45.5684 19.7727 46.0797 19.6768 46.5101 19.4851C46.9405 19.2933 47.2729 19.0227 47.5073 18.6733C47.7417 18.3239 47.861 17.9148 47.8652 17.446C47.861 16.9517 47.7331 16.5149 47.4817 16.1357C47.2303 15.7564 46.8873 15.4581 46.4526 15.2408C46.0222 15.0234 45.53 14.9148 44.976 14.9148C44.4178 14.9148 43.9192 15.0234 43.4803 15.2408C43.0456 15.4581 42.7026 15.7564 42.4512 16.1357C42.204 16.5149 42.0826 16.9517 42.0868 17.446C42.0826 17.9148 42.1955 18.3239 42.4256 18.6733C42.66 19.0227 42.9945 19.2933 43.4292 19.4851C43.8638 19.6768 44.3794 19.7727 44.976 19.7727ZM44.976 13.5597C45.4448 13.5597 45.8603 13.4659 46.2225 13.2784C46.589 13.0909 46.8766 12.8288 47.0854 12.4922C47.2942 12.1555 47.4007 11.7614 47.405 11.3097C47.4007 10.8665 47.2963 10.4808 47.0918 10.1527C46.8873 9.82031 46.6039 9.56463 46.2417 9.38565C45.8794 9.20241 45.4576 9.1108 44.976 9.1108C44.486 9.1108 44.0577 9.20241 43.6912 9.38565C43.3248 9.56463 43.0414 9.82031 42.8411 10.1527C42.6408 10.4808 42.5428 10.8665 42.5471 11.3097C42.5428 11.7614 42.6429 12.1555 42.8475 12.4922C43.0563 12.8288 43.3439 13.0909 43.7104 13.2784C44.0769 13.4659 44.4988 13.5597 44.976 13.5597ZM56.0678 21.179C55.19 21.179 54.4144 21.0234 53.7411 20.7124C53.0721 20.397 52.5501 19.9645 52.1751 19.4148C51.8001 18.8608 51.6147 18.2301 51.619 17.5227C51.6147 16.9687 51.7234 16.4574 51.945 15.9886C52.1665 15.5156 52.4691 15.1214 52.8526 14.8061C53.2404 14.4865 53.6729 14.2841 54.1502 14.1989V14.1222C53.5238 13.9602 53.0252 13.6087 52.6545 13.0675C52.2837 12.522 52.1005 11.902 52.1048 11.2074C52.1005 10.5426 52.2688 9.94815 52.6097 9.42401C52.9506 8.89986 53.4194 8.48651 54.016 8.18395C54.6168 7.88139 55.3008 7.73011 56.0678 7.73011C56.8263 7.73011 57.5039 7.88139 58.1005 8.18395C58.6971 8.48651 59.1658 8.89986 59.5067 9.42401C59.8519 9.94815 60.0266 10.5426 60.0309 11.2074C60.0266 11.902 59.837 12.522 59.462 13.0675C59.0913 13.6087 58.5991 13.9602 57.9854 14.1222V14.1989C58.4585 14.2841 58.8846 14.4865 59.2638 14.8061C59.6431 15.1214 59.9457 15.5156 60.1715 15.9886C60.3974 16.4574 60.5124 16.9687 60.5167 17.5227C60.5124 18.2301 60.3207 18.8608 59.9414 19.4148C59.5664 19.9645 59.0444 20.397 58.3754 20.7124C57.7106 21.0234 56.9414 21.179 56.0678 21.179ZM56.0678 19.7727C56.6602 19.7727 57.1715 19.6768 57.6019 19.4851C58.0323 19.2933 58.3647 19.0227 58.5991 18.6733C58.8335 18.3239 58.9528 17.9148 58.957 17.446C58.9528 16.9517 58.8249 16.5149 58.5735 16.1357C58.3221 15.7564 57.979 15.4581 57.5444 15.2408C57.114 15.0234 56.6218 14.9148 56.0678 14.9148C55.5096 14.9148 55.011 15.0234 54.5721 15.2408C54.1374 15.4581 53.7944 15.7564 53.543 16.1357C53.2958 16.5149 53.1744 16.9517 53.1786 17.446C53.1744 17.9148 53.2873 18.3239 53.5174 18.6733C53.7518 19.0227 54.0863 19.2933 54.521 19.4851C54.9556 19.6768 55.4712 19.7727 56.0678 19.7727ZM56.0678 13.5597C56.5366 13.5597 56.9521 13.4659 57.3143 13.2784C57.6808 13.0909 57.9684 12.8288 58.1772 12.4922C58.386 12.1555 58.4925 11.7614 58.4968 11.3097C58.4925 10.8665 58.3881 10.4808 58.1836 10.1527C57.979 9.82031 57.6957 9.56463 57.3335 9.38565C56.9712 9.20241 56.5494 9.1108 56.0678 9.1108C55.5778 9.1108 55.1495 9.20241 54.783 9.38565C54.4165 9.56463 54.1332 9.82031 53.9329 10.1527C53.7326 10.4808 53.6346 10.8665 53.6388 11.3097C53.6346 11.7614 53.7347 12.1555 53.9393 12.4922C54.1481 12.8288 54.4357 13.0909 54.8022 13.2784C55.1687 13.4659 55.5906 13.5597 56.0678 13.5597ZM72.1966 7.73011C72.7335 7.73437 73.2704 7.83665 73.8074 8.03693C74.3443 8.23722 74.8343 8.5696 75.2775 9.03409C75.7207 9.49432 76.0765 10.1229 76.345 10.9197C76.6135 11.7166 76.7477 12.7159 76.7477 13.9176C76.7477 15.081 76.6369 16.1143 76.4153 17.0178C76.198 17.9169 75.8826 18.6754 75.4693 19.2933C75.0602 19.9112 74.5616 20.38 73.9735 20.6996C73.3897 21.0192 72.7292 21.179 71.992 21.179C71.2591 21.179 70.6049 21.0341 70.0297 20.7443C69.4586 20.4503 68.9899 20.0433 68.6234 19.5234C68.2612 18.9993 68.0289 18.392 67.9267 17.7017H69.4863C69.627 18.3026 69.9061 18.799 70.3237 19.1911C70.7456 19.5788 71.3017 19.7727 71.992 19.7727C73.002 19.7727 73.7988 19.3317 74.3826 18.4496C74.9707 17.5675 75.2647 16.321 75.2647 14.7102H75.1625C74.9238 15.0682 74.6404 15.3771 74.3123 15.6371C73.9842 15.897 73.6199 16.0973 73.2193 16.2379C72.8187 16.3786 72.3926 16.4489 71.9409 16.4489C71.1909 16.4489 70.5027 16.2635 69.8762 15.8928C69.2541 15.5178 68.7555 15.0043 68.3805 14.3523C68.0098 13.696 67.8244 12.946 67.8244 12.1023C67.8244 11.3011 68.0034 10.5682 68.3613 9.90341C68.7235 9.23437 69.2306 8.7017 69.8826 8.3054C70.5389 7.90909 71.3102 7.71733 72.1966 7.73011ZM72.1966 9.13636C71.6596 9.13636 71.176 9.2706 70.7456 9.53906C70.3194 9.80327 69.9806 10.1612 69.7292 10.6129C69.4821 11.0604 69.3585 11.5568 69.3585 12.1023C69.3585 12.6477 69.4778 13.1442 69.7164 13.5916C69.9593 14.0348 70.2896 14.3885 70.7072 14.6527C71.1291 14.9126 71.6085 15.0426 72.1454 15.0426C72.5502 15.0426 72.9274 14.9638 73.2768 14.8061C73.6262 14.6442 73.9309 14.4247 74.1909 14.1477C74.4551 13.8665 74.6618 13.549 74.8109 13.1953C74.9601 12.8374 75.0346 12.4645 75.0346 12.0767C75.0346 11.5653 74.911 11.0859 74.6639 10.6385C74.421 10.1911 74.0843 9.82884 73.6539 9.55185C73.2278 9.27486 72.742 9.13636 72.1966 9.13636ZM83.429 7.73011C83.9659 7.73437 84.5028 7.83665 85.0398 8.03693C85.5767 8.23722 86.0668 8.5696 86.5099 9.03409C86.9531 9.49432 87.3089 10.1229 87.5774 10.9197C87.8459 11.7166 87.9801 12.7159 87.9801 13.9176C87.9801 15.081 87.8693 16.1143 87.6477 17.0178C87.4304 17.9169 87.1151 18.6754 86.7017 19.2933C86.2926 19.9112 85.794 20.38 85.206 20.6996C84.6222 21.0192 83.9616 21.179 83.2244 21.179C82.4915 21.179 81.8374 21.0341 81.2621 20.7443C80.6911 20.4503 80.2223 20.0433 79.8558 19.5234C79.4936 18.9993 79.2614 18.392 79.1591 17.7017H80.7188C80.8594 18.3026 81.1385 18.799 81.5561 19.1911C81.978 19.5788 82.5341 19.7727 83.2244 19.7727C84.2344 19.7727 85.0313 19.3317 85.6151 18.4496C86.2031 17.5675 86.4972 16.321 86.4972 14.7102H86.3949C86.1563 15.0682 85.8729 15.3771 85.5447 15.6371C85.2166 15.897 84.8523 16.0973 84.4517 16.2379C84.0511 16.3786 83.625 16.4489 83.1733 16.4489C82.4233 16.4489 81.7351 16.2635 81.1087 15.8928C80.4865 15.5178 79.9879 15.0043 79.6129 14.3523C79.2422 13.696 79.0568 12.946 79.0568 12.1023C79.0568 11.3011 79.2358 10.5682 79.5938 9.90341C79.956 9.23437 80.4631 8.7017 81.1151 8.3054C81.7713 7.90909 82.5426 7.71733 83.429 7.73011ZM83.429 9.13636C82.892 9.13636 82.4084 9.2706 81.978 9.53906C81.5518 9.80327 81.2131 10.1612 80.9616 10.6129C80.7145 11.0604 80.5909 11.5568 80.5909 12.1023C80.5909 12.6477 80.7102 13.1442 80.9489 13.5916C81.1918 14.0348 81.522 14.3885 81.9396 14.6527C82.3615 14.9126 82.8409 15.0426 83.3778 15.0426C83.7827 15.0426 84.1598 14.9638 84.5092 14.8061C84.8587 14.6442 85.1634 14.4247 85.4233 14.1477C85.6875 13.8665 85.8942 13.549 86.0433 13.1953C86.1925 12.8374 86.267 12.4645 86.267 12.0767C86.267 11.5653 86.1435 11.0859 85.8963 10.6385C85.6534 10.1911 85.3168 9.82884 84.8864 9.55185C84.4602 9.27486 83.9744 9.13636 83.429 9.13636ZM94.6614 7.73011C95.1983 7.73437 95.7353 7.83665 96.2722 8.03693C96.8091 8.23722 97.2992 8.5696 97.7424 9.03409C98.1855 9.49432 98.5414 10.1229 98.8098 10.9197C99.0783 11.7166 99.2125 12.7159 99.2125 13.9176C99.2125 15.081 99.1017 16.1143 98.8801 17.0178C98.6628 17.9169 98.3475 18.6754 97.9341 19.2933C97.525 19.9112 97.0265 20.38 96.4384 20.6996C95.8546 21.0192 95.1941 21.179 94.4569 21.179C93.7239 21.179 93.0698 21.0341 92.4945 20.7443C91.9235 20.4503 91.4547 20.0433 91.0882 19.5234C90.726 18.9993 90.4938 18.392 90.3915 17.7017H91.9512C92.0918 18.3026 92.3709 18.799 92.7885 19.1911C93.2104 19.5788 93.7665 19.7727 94.4569 19.7727C95.4668 19.7727 96.2637 19.3317 96.8475 18.4496C97.4355 17.5675 97.7296 16.321 97.7296 14.7102H97.6273C97.3887 15.0682 97.1053 15.3771 96.7772 15.6371C96.449 15.897 96.0847 16.0973 95.6841 16.2379C95.2836 16.3786 94.8574 16.4489 94.4057 16.4489C93.6557 16.4489 92.9675 16.2635 92.3411 15.8928C91.7189 15.5178 91.2203 15.0043 90.8453 14.3523C90.4746 13.696 90.2892 12.946 90.2892 12.1023C90.2892 11.3011 90.4682 10.5682 90.8262 9.90341C91.1884 9.23437 91.6955 8.7017 92.3475 8.3054C93.0037 7.90909 93.775 7.71733 94.6614 7.73011ZM94.6614 9.13636C94.1245 9.13636 93.6408 9.2706 93.2104 9.53906C92.7843 9.80327 92.4455 10.1612 92.1941 10.6129C91.9469 11.0604 91.8233 11.5568 91.8233 12.1023C91.8233 12.6477 91.9426 13.1442 92.1813 13.5916C92.4242 14.0348 92.7544 14.3885 93.1721 14.6527C93.5939 14.9126 94.0733 15.0426 94.6103 15.0426C95.0151 15.0426 95.3922 14.9638 95.7417 14.8061C96.0911 14.6442 96.3958 14.4247 96.6557 14.1477C96.9199 13.8665 97.1266 13.549 97.2757 13.1953C97.4249 12.8374 97.4995 12.4645 97.4995 12.0767C97.4995 11.5653 97.3759 11.0859 97.1287 10.6385C96.8858 10.1911 96.5492 9.82884 96.1188 9.55185C95.6926 9.27486 95.2069 9.13636 94.6614 9.13636ZM110.982 21.179C110.104 21.179 109.328 21.0234 108.655 20.7124C107.986 20.397 107.464 19.9645 107.089 19.4148C106.714 18.8608 106.529 18.2301 106.533 17.5227C106.529 16.9687 106.637 16.4574 106.859 15.9886C107.081 15.5156 107.383 15.1214 107.767 14.8061C108.154 14.4865 108.587 14.2841 109.064 14.1989V14.1222C108.438 13.9602 107.939 13.6087 107.569 13.0675C107.198 12.522 107.015 11.902 107.019 11.2074C107.015 10.5426 107.183 9.94815 107.524 9.42401C107.865 8.89986 108.333 8.48651 108.93 8.18395C109.531 7.88139 110.215 7.73011 110.982 7.73011C111.74 7.73011 112.418 7.88139 113.015 8.18395C113.611 8.48651 114.08 8.89986 114.421 9.42401C114.766 9.94815 114.941 10.5426 114.945 11.2074C114.941 11.902 114.751 12.522 114.376 13.0675C114.005 13.6087 113.513 13.9602 112.9 14.1222V14.1989C113.373 14.2841 113.799 14.4865 114.178 14.8061C114.557 15.1214 114.86 15.5156 115.086 15.9886C115.311 16.4574 115.426 16.9687 115.431 17.5227C115.426 18.2301 115.235 18.8608 114.855 19.4148C114.48 19.9645 113.958 20.397 113.289 20.7124C112.625 21.0234 111.855 21.179 110.982 21.179ZM110.982 19.7727C111.574 19.7727 112.086 19.6768 112.516 19.4851C112.946 19.2933 113.279 19.0227 113.513 18.6733C113.748 18.3239 113.867 17.9148 113.871 17.446C113.867 16.9517 113.739 16.5149 113.488 16.1357C113.236 15.7564 112.893 15.4581 112.458 15.2408C112.028 15.0234 111.536 14.9148 110.982 14.9148C110.424 14.9148 109.925 15.0234 109.486 15.2408C109.051 15.4581 108.708 15.7564 108.457 16.1357C108.21 16.5149 108.088 16.9517 108.093 17.446C108.088 17.9148 108.201 18.3239 108.431 18.6733C108.666 19.0227 109 19.2933 109.435 19.4851C109.87 19.6768 110.385 19.7727 110.982 19.7727ZM110.982 13.5597C111.451 13.5597 111.866 13.4659 112.228 13.2784C112.595 13.0909 112.882 12.8288 113.091 12.4922C113.3 12.1555 113.407 11.7614 113.411 11.3097C113.407 10.8665 113.302 10.4808 113.098 10.1527C112.893 9.82031 112.61 9.56463 112.248 9.38565C111.885 9.20241 111.463 9.1108 110.982 9.1108C110.492 9.1108 110.064 9.20241 109.697 9.38565C109.331 9.56463 109.047 9.82031 108.847 10.1527C108.647 10.4808 108.549 10.8665 108.553 11.3097C108.549 11.7614 108.649 12.1555 108.853 12.4922C109.062 12.8288 109.35 13.0909 109.716 13.2784C110.083 13.4659 110.505 13.5597 110.982 13.5597ZM122.074 21.179C121.196 21.179 120.42 21.0234 119.747 20.7124C119.078 20.397 118.556 19.9645 118.181 19.4148C117.806 18.8608 117.621 18.2301 117.625 17.5227C117.621 16.9687 117.729 16.4574 117.951 15.9886C118.172 15.5156 118.475 15.1214 118.858 14.8061C119.246 14.4865 119.679 14.2841 120.156 14.1989V14.1222C119.53 13.9602 119.031 13.6087 118.66 13.0675C118.29 12.522 118.106 11.902 118.111 11.2074C118.106 10.5426 118.275 9.94815 118.616 9.42401C118.956 8.89986 119.425 8.48651 120.022 8.18395C120.623 7.88139 121.307 7.73011 122.074 7.73011C122.832 7.73011 123.51 7.88139 124.106 8.18395C124.703 8.48651 125.172 8.89986 125.513 9.42401C125.858 9.94815 126.032 10.5426 126.037 11.2074C126.032 11.902 125.843 12.522 125.468 13.0675C125.097 13.6087 124.605 13.9602 123.991 14.1222V14.1989C124.464 14.2841 124.89 14.4865 125.27 14.8061C125.649 15.1214 125.952 15.5156 126.177 15.9886C126.403 16.4574 126.518 16.9687 126.523 17.5227C126.518 18.2301 126.327 18.8608 125.947 19.4148C125.572 19.9645 125.05 20.397 124.381 20.7124C123.716 21.0234 122.947 21.179 122.074 21.179ZM122.074 19.7727C122.666 19.7727 123.177 19.6768 123.608 19.4851C124.038 19.2933 124.371 19.0227 124.605 18.6733C124.839 18.3239 124.959 17.9148 124.963 17.446C124.959 16.9517 124.831 16.5149 124.579 16.1357C124.328 15.7564 123.985 15.4581 123.55 15.2408C123.12 15.0234 122.628 14.9148 122.074 14.9148C121.515 14.9148 121.017 15.0234 120.578 15.2408C120.143 15.4581 119.8 15.7564 119.549 16.1357C119.302 16.5149 119.18 16.9517 119.184 17.446C119.18 17.9148 119.293 18.3239 119.523 18.6733C119.758 19.0227 120.092 19.2933 120.527 19.4851C120.961 19.6768 121.477 19.7727 122.074 19.7727ZM122.074 13.5597C122.542 13.5597 122.958 13.4659 123.32 13.2784C123.687 13.0909 123.974 12.8288 124.183 12.4922C124.392 12.1555 124.498 11.7614 124.503 11.3097C124.498 10.8665 124.394 10.4808 124.189 10.1527C123.985 9.82031 123.702 9.56463 123.339 9.38565C122.977 9.20241 122.555 9.1108 122.074 9.1108C121.584 9.1108 121.155 9.20241 120.789 9.38565C120.422 9.56463 120.139 9.82031 119.939 10.1527C119.738 10.4808 119.64 10.8665 119.645 11.3097C119.64 11.7614 119.741 12.1555 119.945 12.4922C120.154 12.8288 120.442 13.0909 120.808 13.2784C121.175 13.4659 121.596 13.5597 122.074 13.5597ZM133.165 21.179C132.288 21.179 131.512 21.0234 130.839 20.7124C130.17 20.397 129.648 19.9645 129.273 19.4148C128.898 18.8608 128.712 18.2301 128.717 17.5227C128.712 16.9687 128.821 16.4574 129.043 15.9886C129.264 15.5156 129.567 15.1214 129.95 14.8061C130.338 14.4865 130.771 14.2841 131.248 14.1989V14.1222C130.621 13.9602 130.123 13.6087 129.752 13.0675C129.381 12.522 129.198 11.902 129.202 11.2074C129.198 10.5426 129.366 9.94815 129.707 9.42401C130.048 8.89986 130.517 8.48651 131.114 8.18395C131.714 7.88139 132.398 7.73011 133.165 7.73011C133.924 7.73011 134.602 7.88139 135.198 8.18395C135.795 8.48651 136.263 8.89986 136.604 9.42401C136.95 9.94815 137.124 10.5426 137.129 11.2074C137.124 11.902 136.935 12.522 136.56 13.0675C136.189 13.6087 135.697 13.9602 135.083 14.1222V14.1989C135.556 14.2841 135.982 14.4865 136.362 14.8061C136.741 15.1214 137.043 15.5156 137.269 15.9886C137.495 16.4574 137.61 16.9687 137.614 17.5227C137.61 18.2301 137.418 18.8608 137.039 19.4148C136.664 19.9645 136.142 20.397 135.473 20.7124C134.808 21.0234 134.039 21.179 133.165 21.179ZM133.165 19.7727C133.758 19.7727 134.269 19.6768 134.7 19.4851C135.13 19.2933 135.462 19.0227 135.697 18.6733C135.931 18.3239 136.05 17.9148 136.055 17.446C136.05 16.9517 135.923 16.5149 135.671 16.1357C135.42 15.7564 135.077 15.4581 134.642 15.2408C134.212 15.0234 133.719 14.9148 133.165 14.9148C132.607 14.9148 132.109 15.0234 131.67 15.2408C131.235 15.4581 130.892 15.7564 130.641 16.1357C130.393 16.5149 130.272 16.9517 130.276 17.446C130.272 17.9148 130.385 18.3239 130.615 18.6733C130.849 19.0227 131.184 19.2933 131.619 19.4851C132.053 19.6768 132.569 19.7727 133.165 19.7727ZM133.165 13.5597C133.634 13.5597 134.05 13.4659 134.412 13.2784C134.778 13.0909 135.066 12.8288 135.275 12.4922C135.484 12.1555 135.59 11.7614 135.594 11.3097C135.59 10.8665 135.486 10.4808 135.281 10.1527C135.077 9.82031 134.793 9.56463 134.431 9.38565C134.069 9.20241 133.647 9.1108 133.165 9.1108C132.675 9.1108 132.247 9.20241 131.881 9.38565C131.514 9.56463 131.231 9.82031 131.031 10.1527C130.83 10.4808 130.732 10.8665 130.737 11.3097C130.732 11.7614 130.832 12.1555 131.037 12.4922C131.246 12.8288 131.533 13.0909 131.9 13.2784C132.266 13.4659 132.688 13.5597 133.165 13.5597ZM145.127 21V19.8494L149.448 15.1193C149.955 14.5653 150.372 14.0838 150.7 13.6747C151.029 13.2614 151.271 12.8736 151.429 12.5114C151.591 12.1449 151.672 11.7614 151.672 11.3608C151.672 10.9006 151.561 10.5021 151.34 10.1655C151.122 9.82883 150.824 9.56889 150.445 9.38565C150.066 9.20241 149.639 9.1108 149.166 9.1108C148.664 9.1108 148.225 9.2152 147.85 9.42401C147.479 9.62855 147.191 9.91619 146.987 10.2869C146.786 10.6577 146.686 11.0923 146.686 11.5909H145.178C145.178 10.8239 145.355 10.1506 145.708 9.57102C146.062 8.99148 146.544 8.53977 147.153 8.21591C147.767 7.89204 148.455 7.73011 149.218 7.73011C149.985 7.73011 150.664 7.89204 151.257 8.21591C151.849 8.53977 152.313 8.97656 152.65 9.52628C152.987 10.076 153.155 10.6875 153.155 11.3608C153.155 11.8423 153.068 12.3132 152.893 12.7734C152.722 13.2294 152.424 13.7386 151.998 14.3011C151.576 14.8594 150.99 15.5412 150.24 16.3466L147.3 19.4915V19.5938H153.385V21H145.127ZM156.025 21V19.8494L160.346 15.1193C160.853 14.5653 161.271 14.0838 161.599 13.6747C161.927 13.2614 162.17 12.8736 162.328 12.5114C162.49 12.1449 162.57 11.7614 162.57 11.3608C162.57 10.9006 162.46 10.5021 162.238 10.1655C162.021 9.82883 161.722 9.56889 161.343 9.38565C160.964 9.20241 160.538 9.1108 160.065 9.1108C159.562 9.1108 159.123 9.2152 158.748 9.42401C158.377 9.62855 158.09 9.91619 157.885 10.2869C157.685 10.6577 157.585 11.0923 157.585 11.5909H156.076C156.076 10.8239 156.253 10.1506 156.607 9.57102C156.96 8.99148 157.442 8.53977 158.051 8.21591C158.665 7.89204 159.353 7.73011 160.116 7.73011C160.883 7.73011 161.563 7.89204 162.155 8.21591C162.747 8.53977 163.212 8.97656 163.548 9.52628C163.885 10.076 164.053 10.6875 164.053 11.3608C164.053 11.8423 163.966 12.3132 163.791 12.7734C163.621 13.2294 163.323 13.7386 162.896 14.3011C162.475 14.8594 161.889 15.5412 161.139 16.3466L158.198 19.4915V19.5938H164.284V21H156.025Z" fill="#787878"/>
<path d="M1.0483 132.315V131.011L6.80114 121.909H7.74716V123.929H7.10795L2.76136 130.807V130.909H10.5085V132.315H1.0483ZM7.21023 135V131.919V131.312V121.909H8.71875V135H7.21023ZM12.5971 132.315V131.011L18.35 121.909H19.296V123.929H18.6568L14.3102 130.807V130.909H22.0574V132.315H12.5971ZM18.7591 135V131.919V131.312V121.909H20.2676V135H18.7591ZM26.1131 133.21L26.0108 133.901C25.9384 134.386 25.8276 134.906 25.6784 135.46C25.5336 136.014 25.3823 136.536 25.2246 137.026C25.0669 137.516 24.937 137.906 24.8347 138.196H23.6841C23.7395 137.923 23.812 137.563 23.9015 137.116C23.9909 136.668 24.0804 136.168 24.1699 135.614C24.2637 135.064 24.3404 134.501 24.4 133.926L24.4767 133.21H26.1131ZM34.1751 135V121.909H35.7603V127.739H42.7404V121.909H44.3256V135H42.7404V129.145H35.7603V135H34.1751ZM51.2834 135.205C50.397 135.205 49.6193 134.994 48.9503 134.572C48.2855 134.15 47.7656 133.56 47.3906 132.801C47.0199 132.043 46.8345 131.156 46.8345 130.142C46.8345 129.119 47.0199 128.227 47.3906 127.464C47.7656 126.701 48.2855 126.109 48.9503 125.687C49.6193 125.265 50.397 125.054 51.2834 125.054C52.1697 125.054 52.9453 125.265 53.6101 125.687C54.2791 126.109 54.799 126.701 55.1697 127.464C55.5447 128.227 55.7322 129.119 55.7322 130.142C55.7322 131.156 55.5447 132.043 55.1697 132.801C54.799 133.56 54.2791 134.15 53.6101 134.572C52.9453 134.994 52.1697 135.205 51.2834 135.205ZM51.2834 133.849C51.9567 133.849 52.5107 133.677 52.9453 133.332C53.38 132.987 53.7017 132.533 53.9105 131.97C54.1193 131.408 54.2237 130.798 54.2237 130.142C54.2237 129.486 54.1193 128.874 53.9105 128.308C53.7017 127.741 53.38 127.283 52.9453 126.933C52.5107 126.584 51.9567 126.409 51.2834 126.409C50.6101 126.409 50.0561 126.584 49.6214 126.933C49.1868 127.283 48.8651 127.741 48.6562 128.308C48.4474 128.874 48.343 129.486 48.343 130.142C48.343 130.798 48.4474 131.408 48.6562 131.97C48.8651 132.533 49.1868 132.987 49.6214 133.332C50.0561 133.677 50.6101 133.849 51.2834 133.849ZM64.2225 130.986V125.182H65.731V135H64.2225V133.338H64.1202C63.8901 133.837 63.5321 134.261 63.0463 134.61C62.5605 134.955 61.9469 135.128 61.2054 135.128C60.5918 135.128 60.0463 134.994 59.5691 134.725C59.0918 134.452 58.7168 134.043 58.4441 133.498C58.1713 132.948 58.035 132.256 58.035 131.42V125.182H59.5435V131.318C59.5435 132.034 59.7438 132.605 60.1444 133.031C60.5492 133.457 61.0648 133.67 61.6912 133.67C62.0662 133.67 62.4476 133.575 62.8354 133.383C63.2275 133.191 63.5556 132.897 63.8198 132.501C64.0882 132.104 64.2225 131.599 64.2225 130.986ZM75.4485 127.381L74.0934 127.764C74.0082 127.538 73.8825 127.319 73.7163 127.106C73.5543 126.888 73.3327 126.71 73.0515 126.569C72.7702 126.428 72.4102 126.358 71.9712 126.358C71.3704 126.358 70.8697 126.496 70.4691 126.773C70.0728 127.046 69.8746 127.393 69.8746 127.815C69.8746 128.19 70.011 128.487 70.2837 128.704C70.5565 128.921 70.9826 129.102 71.5621 129.247L73.0195 129.605C73.8974 129.818 74.5515 130.144 74.9819 130.583C75.4123 131.018 75.6275 131.578 75.6275 132.264C75.6275 132.827 75.4656 133.33 75.1417 133.773C74.8221 134.216 74.3746 134.565 73.7994 134.821C73.2241 135.077 72.555 135.205 71.7923 135.205C70.7908 135.205 69.962 134.987 69.3058 134.553C68.6495 134.118 68.234 133.483 68.0593 132.648L69.4911 132.29C69.6275 132.818 69.8853 133.214 70.2646 133.479C70.6481 133.743 71.1488 133.875 71.7667 133.875C72.4698 133.875 73.0281 133.726 73.4414 133.428C73.859 133.125 74.0678 132.763 74.0678 132.341C74.0678 132 73.9485 131.714 73.7099 131.484C73.4712 131.25 73.1048 131.075 72.6104 130.96L70.9741 130.577C70.0749 130.364 69.4144 130.033 68.9925 129.586C68.5749 129.134 68.3661 128.57 68.3661 127.892C68.3661 127.338 68.5217 126.848 68.8327 126.422C69.1481 125.996 69.5763 125.661 70.1175 125.418C70.663 125.175 71.2809 125.054 71.9712 125.054C72.9428 125.054 73.7056 125.267 74.2596 125.693C74.8178 126.119 75.2141 126.682 75.4485 127.381ZM77.8983 135V125.182H79.4068V135H77.8983ZM78.6653 123.545C78.3713 123.545 78.1177 123.445 77.9047 123.245C77.6958 123.045 77.5914 122.804 77.5914 122.523C77.5914 122.241 77.6958 122.001 77.9047 121.8C78.1177 121.6 78.3713 121.5 78.6653 121.5C78.9593 121.5 79.2108 121.6 79.4196 121.8C79.6326 122.001 79.7392 122.241 79.7392 122.523C79.7392 122.804 79.6326 123.045 79.4196 123.245C79.2108 123.445 78.9593 123.545 78.6653 123.545ZM83.6783 129.094V135H82.1697V125.182H83.6271V126.716H83.755C83.9851 126.217 84.3345 125.817 84.8033 125.514C85.272 125.207 85.8771 125.054 86.6186 125.054C87.2834 125.054 87.8651 125.19 88.3636 125.463C88.8622 125.732 89.25 126.141 89.527 126.69C89.804 127.236 89.9425 127.926 89.9425 128.761V135H88.4339V128.864C88.4339 128.092 88.2337 127.491 87.8331 127.061C87.4325 126.626 86.8828 126.409 86.1839 126.409C85.7024 126.409 85.272 126.513 84.8928 126.722C84.5178 126.931 84.2216 127.236 84.0043 127.636C83.7869 128.037 83.6783 128.523 83.6783 129.094ZM96.6621 138.886C95.9334 138.886 95.307 138.793 94.7828 138.605C94.2587 138.422 93.8219 138.179 93.4725 137.876C93.1273 137.578 92.8525 137.259 92.6479 136.918L93.8496 136.074C93.986 136.253 94.1586 136.457 94.3674 136.688C94.5762 136.922 94.8617 137.124 95.2239 137.295C95.5904 137.469 96.0698 137.557 96.6621 137.557C97.4547 137.557 98.1088 137.365 98.6245 136.982C99.1401 136.598 99.3979 135.997 99.3979 135.179V133.185H99.2701C99.1593 133.364 99.0016 133.585 98.7971 133.849C98.5968 134.109 98.307 134.342 97.9277 134.546C97.5527 134.746 97.0456 134.847 96.4064 134.847C95.6138 134.847 94.9022 134.659 94.2715 134.284C93.6451 133.909 93.1486 133.364 92.7821 132.648C92.4199 131.932 92.2388 131.062 92.2388 130.04C92.2388 129.034 92.4157 128.158 92.7694 127.413C93.123 126.663 93.6152 126.083 94.2459 125.674C94.8766 125.261 95.6053 125.054 96.432 125.054C97.0712 125.054 97.5783 125.161 97.9533 125.374C98.3326 125.582 98.6223 125.821 98.8226 126.089C99.0272 126.354 99.1848 126.571 99.2956 126.741H99.449V125.182H100.906V135.281C100.906 136.125 100.715 136.811 100.331 137.339C99.9519 137.872 99.4405 138.262 98.7971 138.509C98.1578 138.761 97.4462 138.886 96.6621 138.886ZM96.611 133.491C97.2161 133.491 97.7275 133.353 98.1451 133.076C98.5627 132.799 98.8801 132.401 99.0975 131.881C99.3148 131.361 99.4235 130.739 99.4235 130.014C99.4235 129.307 99.3169 128.683 99.1039 128.141C98.8908 127.6 98.5755 127.176 98.1578 126.869C97.7402 126.562 97.2246 126.409 96.611 126.409C95.9718 126.409 95.4391 126.571 95.013 126.895C94.5911 127.219 94.2736 127.653 94.0605 128.199C93.8517 128.744 93.7473 129.349 93.7473 130.014C93.7473 130.696 93.8539 131.299 94.0669 131.823C94.2843 132.343 94.6039 132.752 95.0257 133.05C95.4519 133.344 95.9803 133.491 96.611 133.491ZM116.094 125.182C116.017 124.534 115.706 124.031 115.161 123.673C114.615 123.315 113.946 123.136 113.154 123.136C112.574 123.136 112.067 123.23 111.632 123.418C111.202 123.605 110.865 123.863 110.622 124.191C110.384 124.519 110.264 124.892 110.264 125.31C110.264 125.659 110.347 125.96 110.514 126.211C110.684 126.458 110.901 126.665 111.166 126.831C111.43 126.993 111.707 127.127 111.997 127.234C112.286 127.336 112.553 127.419 112.796 127.483L114.125 127.841C114.466 127.93 114.845 128.054 115.263 128.212C115.685 128.369 116.088 128.585 116.471 128.857C116.859 129.126 117.178 129.471 117.43 129.893C117.681 130.315 117.807 130.832 117.807 131.446C117.807 132.153 117.622 132.793 117.251 133.364C116.884 133.935 116.347 134.388 115.64 134.725C114.937 135.062 114.083 135.23 113.077 135.23C112.139 135.23 111.328 135.079 110.642 134.776C109.96 134.474 109.423 134.052 109.031 133.511C108.643 132.969 108.423 132.341 108.372 131.625H110.009C110.051 132.119 110.218 132.528 110.507 132.852C110.801 133.172 111.172 133.411 111.619 133.568C112.071 133.722 112.557 133.798 113.077 133.798C113.682 133.798 114.225 133.7 114.707 133.504C115.188 133.304 115.57 133.027 115.851 132.673C116.132 132.315 116.273 131.898 116.273 131.42C116.273 130.986 116.151 130.632 115.909 130.359C115.666 130.087 115.346 129.865 114.95 129.695C114.553 129.524 114.125 129.375 113.665 129.247L112.054 128.787C111.031 128.493 110.222 128.073 109.625 127.528C109.029 126.982 108.73 126.268 108.73 125.386C108.73 124.653 108.928 124.014 109.325 123.469C109.725 122.919 110.262 122.493 110.936 122.19C111.613 121.884 112.369 121.73 113.205 121.73C114.048 121.73 114.798 121.881 115.455 122.184C116.111 122.482 116.631 122.891 117.014 123.411C117.402 123.931 117.607 124.521 117.628 125.182H116.094ZM124.479 125.182V126.46H119.391V125.182H124.479ZM120.874 122.83H122.382V132.188C122.382 132.614 122.444 132.933 122.567 133.146C122.695 133.355 122.857 133.496 123.053 133.568C123.254 133.636 123.464 133.67 123.686 133.67C123.852 133.67 123.989 133.662 124.095 133.645C124.202 133.624 124.287 133.607 124.351 133.594L124.658 134.949C124.555 134.987 124.413 135.026 124.229 135.064C124.046 135.107 123.814 135.128 123.533 135.128C123.107 135.128 122.689 135.036 122.28 134.853C121.875 134.67 121.538 134.391 121.27 134.016C121.006 133.641 120.874 133.168 120.874 132.597V122.83ZM129.637 135.23C129.015 135.23 128.45 135.113 127.943 134.879C127.436 134.64 127.033 134.297 126.735 133.849C126.437 133.398 126.288 132.852 126.288 132.213C126.288 131.651 126.398 131.195 126.62 130.845C126.842 130.491 127.138 130.214 127.509 130.014C127.879 129.814 128.288 129.665 128.736 129.567C129.188 129.464 129.641 129.384 130.097 129.324C130.694 129.247 131.178 129.19 131.548 129.151C131.923 129.109 132.196 129.038 132.366 128.94C132.541 128.842 132.629 128.672 132.629 128.429V128.378C132.629 127.747 132.456 127.257 132.111 126.908C131.77 126.558 131.252 126.384 130.558 126.384C129.837 126.384 129.273 126.541 128.864 126.857C128.455 127.172 128.167 127.509 128.001 127.866L126.569 127.355C126.825 126.759 127.165 126.294 127.592 125.962C128.022 125.625 128.491 125.391 128.998 125.259C129.509 125.122 130.012 125.054 130.506 125.054C130.822 125.054 131.184 125.092 131.593 125.169C132.006 125.241 132.405 125.393 132.788 125.623C133.176 125.853 133.498 126.2 133.754 126.665C134.009 127.129 134.137 127.751 134.137 128.531V135H132.629V133.67H132.552C132.45 133.884 132.279 134.112 132.04 134.354C131.802 134.597 131.484 134.804 131.088 134.974C130.692 135.145 130.208 135.23 129.637 135.23ZM129.867 133.875C130.464 133.875 130.967 133.758 131.376 133.523C131.789 133.289 132.1 132.987 132.309 132.616C132.522 132.245 132.629 131.855 132.629 131.446V130.065C132.565 130.142 132.424 130.212 132.207 130.276C131.994 130.336 131.746 130.389 131.465 130.436C131.188 130.479 130.918 130.517 130.653 130.551C130.393 130.581 130.183 130.607 130.021 130.628C129.629 130.679 129.262 130.762 128.921 130.877C128.585 130.988 128.312 131.156 128.103 131.382C127.898 131.604 127.796 131.906 127.796 132.29C127.796 132.814 127.99 133.21 128.378 133.479C128.77 133.743 129.266 133.875 129.867 133.875ZM141.16 125.182V126.46H136.072V125.182H141.16ZM137.555 122.83H139.064V132.188C139.064 132.614 139.126 132.933 139.249 133.146C139.377 133.355 139.539 133.496 139.735 133.568C139.935 133.636 140.146 133.67 140.368 133.67C140.534 133.67 140.67 133.662 140.777 133.645C140.883 133.624 140.969 133.607 141.032 133.594L141.339 134.949C141.237 134.987 141.094 135.026 140.911 135.064C140.728 135.107 140.496 135.128 140.214 135.128C139.788 135.128 139.371 135.036 138.961 134.853C138.557 134.67 138.22 134.391 137.952 134.016C137.687 133.641 137.555 133.168 137.555 132.597V122.83ZM147.441 135.205C146.494 135.205 145.678 134.996 144.992 134.578C144.311 134.156 143.784 133.568 143.414 132.814C143.047 132.055 142.864 131.173 142.864 130.168C142.864 129.162 143.047 128.276 143.414 127.509C143.784 126.737 144.3 126.136 144.96 125.706C145.625 125.271 146.401 125.054 147.287 125.054C147.798 125.054 148.303 125.139 148.802 125.31C149.301 125.48 149.754 125.757 150.164 126.141C150.573 126.52 150.899 127.023 151.142 127.649C151.384 128.276 151.506 129.047 151.506 129.963V130.602H143.938V129.298H149.972C149.972 128.744 149.861 128.25 149.639 127.815C149.422 127.381 149.111 127.038 148.706 126.786C148.306 126.535 147.833 126.409 147.287 126.409C146.686 126.409 146.166 126.558 145.727 126.857C145.293 127.151 144.958 127.534 144.724 128.007C144.49 128.48 144.372 128.987 144.372 129.528V130.398C144.372 131.139 144.5 131.768 144.756 132.283C145.016 132.795 145.376 133.185 145.836 133.453C146.296 133.717 146.831 133.849 147.441 133.849C147.837 133.849 148.195 133.794 148.514 133.683C148.838 133.568 149.117 133.398 149.352 133.172C149.586 132.942 149.767 132.656 149.895 132.315L151.352 132.724C151.199 133.219 150.941 133.653 150.579 134.028C150.217 134.399 149.769 134.689 149.237 134.898C148.704 135.102 148.105 135.205 147.441 135.205ZM156.051 133.21L155.948 133.901C155.876 134.386 155.765 134.906 155.616 135.46C155.471 136.014 155.32 136.536 155.162 137.026C155.004 137.516 154.874 137.906 154.772 138.196H153.622C153.677 137.923 153.749 137.563 153.839 137.116C153.928 136.668 154.018 136.168 154.107 135.614C154.201 135.064 154.278 134.501 154.338 133.926L154.414 133.21H156.051ZM168.306 135.179C167.462 135.179 166.71 135.034 166.049 134.744C165.393 134.455 164.871 134.052 164.483 133.536C164.1 133.016 163.891 132.413 163.857 131.727H165.468C165.502 132.149 165.647 132.513 165.902 132.82C166.158 133.123 166.493 133.357 166.906 133.523C167.319 133.69 167.777 133.773 168.28 133.773C168.843 133.773 169.341 133.675 169.776 133.479C170.211 133.283 170.551 133.01 170.799 132.661C171.046 132.311 171.169 131.906 171.169 131.446C171.169 130.964 171.05 130.54 170.811 130.174C170.573 129.803 170.223 129.513 169.763 129.305C169.303 129.096 168.74 128.991 168.076 128.991H167.027V127.585H168.076C168.596 127.585 169.051 127.491 169.444 127.304C169.84 127.116 170.149 126.852 170.37 126.511C170.596 126.17 170.709 125.77 170.709 125.31C170.709 124.866 170.611 124.481 170.415 124.153C170.219 123.825 169.942 123.569 169.584 123.386C169.23 123.202 168.813 123.111 168.331 123.111C167.88 123.111 167.453 123.194 167.053 123.36C166.657 123.522 166.333 123.759 166.081 124.07C165.83 124.376 165.694 124.747 165.672 125.182H164.138C164.164 124.496 164.37 123.895 164.758 123.379C165.146 122.859 165.653 122.455 166.279 122.165C166.91 121.875 167.603 121.73 168.357 121.73C169.167 121.73 169.861 121.894 170.441 122.222C171.02 122.546 171.466 122.974 171.777 123.507C172.088 124.04 172.243 124.615 172.243 125.233C172.243 125.97 172.049 126.599 171.662 127.119C171.278 127.638 170.756 127.999 170.096 128.199V128.301C170.922 128.437 171.568 128.789 172.032 129.356C172.497 129.918 172.729 130.615 172.729 131.446C172.729 132.158 172.535 132.797 172.147 133.364C171.764 133.926 171.24 134.369 170.575 134.693C169.91 135.017 169.154 135.179 168.306 135.179ZM175.343 135V133.849L179.664 129.119C180.172 128.565 180.589 128.084 180.917 127.675C181.245 127.261 181.488 126.874 181.646 126.511C181.808 126.145 181.889 125.761 181.889 125.361C181.889 124.901 181.778 124.502 181.556 124.165C181.339 123.829 181.041 123.569 180.662 123.386C180.282 123.202 179.856 123.111 179.383 123.111C178.88 123.111 178.441 123.215 178.066 123.424C177.696 123.629 177.408 123.916 177.203 124.287C177.003 124.658 176.903 125.092 176.903 125.591H175.395C175.395 124.824 175.571 124.151 175.925 123.571C176.279 122.991 176.76 122.54 177.37 122.216C177.983 121.892 178.672 121.73 179.434 121.73C180.201 121.73 180.881 121.892 181.473 122.216C182.066 122.54 182.53 122.977 182.867 123.526C183.203 124.076 183.372 124.688 183.372 125.361C183.372 125.842 183.284 126.313 183.11 126.773C182.939 127.229 182.641 127.739 182.215 128.301C181.793 128.859 181.207 129.541 180.457 130.347L177.517 133.491V133.594H183.602V135H175.343ZM190.512 135.179C189.549 135.179 188.728 134.917 188.051 134.393C187.373 133.864 186.855 133.099 186.498 132.098C186.14 131.092 185.961 129.878 185.961 128.455C185.961 127.04 186.14 125.832 186.498 124.83C186.86 123.825 187.38 123.058 188.057 122.529C188.739 121.996 189.557 121.73 190.512 121.73C191.466 121.73 192.282 121.996 192.96 122.529C193.642 123.058 194.162 123.825 194.52 124.83C194.882 125.832 195.063 127.04 195.063 128.455C195.063 129.878 194.884 131.092 194.526 132.098C194.168 133.099 193.65 133.864 192.973 134.393C192.295 134.917 191.475 135.179 190.512 135.179ZM190.512 133.773C191.466 133.773 192.208 133.312 192.736 132.392C193.265 131.472 193.529 130.159 193.529 128.455C193.529 127.321 193.407 126.356 193.164 125.559C192.926 124.762 192.581 124.155 192.129 123.737C191.681 123.32 191.142 123.111 190.512 123.111C189.566 123.111 188.826 123.577 188.294 124.511C187.761 125.44 187.495 126.754 187.495 128.455C187.495 129.588 187.614 130.551 187.853 131.344C188.091 132.136 188.434 132.739 188.882 133.153C189.333 133.566 189.877 133.773 190.512 133.773ZM201.762 135.179C200.799 135.179 199.978 134.917 199.301 134.393C198.623 133.864 198.105 133.099 197.748 132.098C197.39 131.092 197.211 129.878 197.211 128.455C197.211 127.04 197.39 125.832 197.748 124.83C198.11 123.825 198.63 123.058 199.307 122.529C199.989 121.996 200.807 121.73 201.762 121.73C202.716 121.73 203.532 121.996 204.21 122.529C204.892 123.058 205.412 123.825 205.77 124.83C206.132 125.832 206.313 127.04 206.313 128.455C206.313 129.878 206.134 131.092 205.776 132.098C205.418 133.099 204.9 133.864 204.223 134.393C203.545 134.917 202.725 135.179 201.762 135.179ZM201.762 133.773C202.716 133.773 203.458 133.312 203.986 132.392C204.515 131.472 204.779 130.159 204.779 128.455C204.779 127.321 204.657 126.356 204.414 125.559C204.176 124.762 203.831 124.155 203.379 123.737C202.931 123.32 202.392 123.111 201.762 123.111C200.816 123.111 200.076 123.577 199.544 124.511C199.011 125.44 198.745 126.754 198.745 128.455C198.745 129.588 198.864 130.551 199.103 131.344C199.341 132.136 199.684 132.739 200.132 133.153C200.583 133.566 201.127 133.773 201.762 133.773Z" fill="#787878"/>
<path d="M5.49716 59.2045C4.55114 59.2045 3.73509 58.9957 3.04901 58.5781C2.36719 58.1562 1.84091 57.5682 1.47017 56.8139C1.10369 56.0554 0.920455 55.1733 0.920455 54.1676C0.920455 53.1619 1.10369 52.2756 1.47017 51.5085C1.84091 50.7372 2.35653 50.1364 3.01705 49.706C3.68182 49.2713 4.45739 49.054 5.34375 49.054C5.85511 49.054 6.36009 49.1392 6.85866 49.3097C7.35724 49.4801 7.81108 49.7571 8.22017 50.1406C8.62926 50.5199 8.95526 51.0227 9.19815 51.6491C9.44105 52.2756 9.5625 53.0469 9.5625 53.9631V54.6023H1.99432V53.2983H8.02841C8.02841 52.7443 7.91761 52.25 7.69602 51.8153C7.47869 51.3807 7.16761 51.0376 6.76278 50.7862C6.36222 50.5348 5.8892 50.4091 5.34375 50.4091C4.7429 50.4091 4.22301 50.5582 3.78409 50.8565C3.34943 51.1506 3.01491 51.5341 2.78054 52.0071C2.54616 52.4801 2.42898 52.9872 2.42898 53.5284V54.3977C2.42898 55.1392 2.55682 55.7678 2.8125 56.2834C3.07244 56.7947 3.43253 57.1847 3.89276 57.4531C4.35298 57.7173 4.88778 57.8494 5.49716 57.8494C5.89347 57.8494 6.25142 57.794 6.57102 57.6832C6.89489 57.5682 7.17401 57.3977 7.40838 57.1719C7.64276 56.9418 7.82386 56.6562 7.9517 56.3153L9.40909 56.7244C9.25568 57.2188 8.99787 57.6534 8.63565 58.0284C8.27344 58.3991 7.82599 58.6889 7.29332 58.8977C6.76065 59.1023 6.16193 59.2045 5.49716 59.2045ZM12.7186 49.1818L15.0708 53.196L17.4231 49.1818H19.1618L15.9913 54.0909L19.1618 59H17.4231L15.0708 55.1903L12.7186 59H10.9799L14.0993 54.0909L10.9799 49.1818H12.7186ZM24.2035 59.2301C23.5813 59.2301 23.0167 59.1129 22.5096 58.8786C22.0025 58.6399 21.5998 58.2969 21.3015 57.8494C21.0032 57.3977 20.854 56.8523 20.854 56.2131C20.854 55.6506 20.9648 55.1946 21.1864 54.8452C21.408 54.4915 21.7042 54.2145 22.0749 54.0142C22.4457 53.8139 22.8548 53.6648 23.3022 53.5668C23.7539 53.4645 24.2077 53.3835 24.6637 53.3239C25.2603 53.2472 25.744 53.1896 26.1147 53.1513C26.4897 53.1087 26.7624 53.0384 26.9329 52.9403C27.1076 52.8423 27.195 52.6719 27.195 52.429V52.3778C27.195 51.7472 27.0224 51.2571 26.6772 50.9077C26.3363 50.5582 25.8185 50.3835 25.1239 50.3835C24.4038 50.3835 23.8391 50.5412 23.43 50.8565C23.021 51.1719 22.7333 51.5085 22.5671 51.8665L21.1353 51.3551C21.391 50.7585 21.7319 50.294 22.158 49.9616C22.5884 49.625 23.0572 49.3906 23.5643 49.2585C24.0756 49.1222 24.5785 49.054 25.0728 49.054C25.3881 49.054 25.7504 49.0923 26.1594 49.169C26.5728 49.2415 26.9712 49.3928 27.3548 49.6229C27.7425 49.853 28.0643 50.2003 28.32 50.6648C28.5756 51.1293 28.7035 51.7514 28.7035 52.5312V59H27.195V57.6705H27.1183C27.016 57.8835 26.8455 58.1115 26.6069 58.3544C26.3683 58.5973 26.0508 58.804 25.6545 58.9744C25.2582 59.1449 24.7745 59.2301 24.2035 59.2301ZM24.4336 57.875C25.0302 57.875 25.533 57.7578 25.9421 57.5234C26.3555 57.2891 26.6665 56.9865 26.8754 56.6158C27.0884 56.245 27.195 55.8551 27.195 55.446V54.0653C27.131 54.142 26.9904 54.2124 26.7731 54.2763C26.56 54.3359 26.3129 54.3892 26.0316 54.4361C25.7546 54.4787 25.484 54.517 25.2198 54.5511C24.9599 54.581 24.7489 54.6065 24.587 54.6278C24.195 54.679 23.8285 54.7621 23.4876 54.8771C23.1509 54.9879 22.8782 55.1562 22.6694 55.3821C22.4648 55.6037 22.3626 55.9062 22.3626 56.2898C22.3626 56.8139 22.5565 57.2102 22.9442 57.4787C23.3363 57.7429 23.8327 57.875 24.4336 57.875ZM31.4569 59V49.1818H32.9142V50.7159H33.0421C33.2466 50.1918 33.5769 49.7848 34.0328 49.495C34.4888 49.201 35.0364 49.054 35.6756 49.054C36.3233 49.054 36.8624 49.201 37.2928 49.495C37.7275 49.7848 38.0662 50.1918 38.3091 50.7159H38.4114C38.6628 50.2088 39.04 49.8061 39.5428 49.5078C40.0456 49.2053 40.6486 49.054 41.3517 49.054C42.2296 49.054 42.9476 49.3288 43.5059 49.8786C44.0641 50.424 44.3432 51.2741 44.3432 52.429V59H42.8347V52.429C42.8347 51.7045 42.6365 51.1868 42.2402 50.8757C41.8439 50.5646 41.3773 50.4091 40.8404 50.4091C40.15 50.4091 39.6152 50.6179 39.236 51.0355C38.8567 51.4489 38.6671 51.973 38.6671 52.608V59H37.133V52.2756C37.133 51.7173 36.9519 51.2678 36.5897 50.9268C36.2275 50.5817 35.7608 50.4091 35.1898 50.4091C34.7978 50.4091 34.4313 50.5135 34.0904 50.7223C33.7537 50.9311 33.481 51.2209 33.2722 51.5916C33.0676 51.9581 32.9654 52.3821 32.9654 52.8636V59H31.4569ZM47.1014 62.6818V49.1818H48.5588V50.7415H48.7377C48.8485 50.571 49.002 50.3537 49.198 50.0895C49.3983 49.821 49.6838 49.5824 50.0545 49.3736C50.4295 49.1605 50.9366 49.054 51.5758 49.054C52.4025 49.054 53.1312 49.2607 53.7619 49.674C54.3926 50.0874 54.8848 50.6733 55.2385 51.4318C55.5922 52.1903 55.769 53.0852 55.769 54.1165C55.769 55.1562 55.5922 56.0575 55.2385 56.8203C54.8848 57.5788 54.3947 58.1669 53.7683 58.5845C53.1419 58.9979 52.4196 59.2045 51.6014 59.2045C50.9707 59.2045 50.4657 59.1001 50.0865 58.8913C49.7072 58.6783 49.4153 58.4375 49.2108 58.169C49.0062 57.8963 48.8485 57.6705 48.7377 57.4915H48.6099V62.6818H47.1014ZM48.5843 54.0909C48.5843 54.8324 48.693 55.4865 48.9103 56.0533C49.1277 56.6158 49.4451 57.0568 49.8627 57.3764C50.2804 57.6918 50.7917 57.8494 51.3968 57.8494C52.0275 57.8494 52.5538 57.6832 52.9757 57.3509C53.4018 57.0142 53.7214 56.5625 53.9345 55.9957C54.1518 55.4247 54.2605 54.7898 54.2605 54.0909C54.2605 53.4006 54.1539 52.7784 53.9409 52.2244C53.7321 51.6662 53.4146 51.2251 52.9885 50.9013C52.5666 50.5732 52.036 50.4091 51.3968 50.4091C50.7832 50.4091 50.2676 50.5646 49.85 50.8757C49.4324 51.1825 49.117 51.6129 48.9039 52.1669C48.6909 52.7166 48.5843 53.358 48.5843 54.0909ZM59.5787 45.9091V59H58.0701V45.9091H59.5787ZM66.4581 59.2045C65.5121 59.2045 64.696 58.9957 64.0099 58.5781C63.3281 58.1562 62.8018 57.5682 62.4311 56.8139C62.0646 56.0554 61.8814 55.1733 61.8814 54.1676C61.8814 53.1619 62.0646 52.2756 62.4311 51.5085C62.8018 50.7372 63.3175 50.1364 63.978 49.706C64.6428 49.2713 65.4183 49.054 66.3047 49.054C66.8161 49.054 67.321 49.1392 67.8196 49.3097C68.3182 49.4801 68.772 49.7571 69.1811 50.1406C69.5902 50.5199 69.9162 51.0227 70.1591 51.6491C70.402 52.2756 70.5234 53.0469 70.5234 53.9631V54.6023H62.9553V53.2983H68.9893C68.9893 52.7443 68.8786 52.25 68.657 51.8153C68.4396 51.3807 68.1286 51.0376 67.7237 50.7862C67.3232 50.5348 66.8501 50.4091 66.3047 50.4091C65.7038 50.4091 65.1839 50.5582 64.745 50.8565C64.3104 51.1506 63.9759 51.5341 63.7415 52.0071C63.5071 52.4801 63.3899 52.9872 63.3899 53.5284V54.3977C63.3899 55.1392 63.5178 55.7678 63.7734 56.2834C64.0334 56.7947 64.3935 57.1847 64.8537 57.4531C65.3139 57.7173 65.8487 57.8494 66.4581 57.8494C66.8544 57.8494 67.2124 57.794 67.532 57.6832C67.8558 57.5682 68.1349 57.3977 68.3693 57.1719C68.6037 56.9418 68.7848 56.6562 68.9126 56.3153L70.37 56.7244C70.2166 57.2188 69.9588 57.6534 69.5966 58.0284C69.2344 58.3991 68.7869 58.6889 68.2543 58.8977C67.7216 59.1023 67.1229 59.2045 66.4581 59.2045ZM80.3608 62.4517C79.0568 62.4517 77.9041 62.2727 76.9027 61.9148C75.9013 61.5611 75.0597 61.0391 74.3778 60.3487C73.696 59.6584 73.1804 58.8125 72.831 57.8111C72.4815 56.8097 72.3068 55.6634 72.3068 54.3722C72.3068 53.1236 72.4837 52.0071 72.8374 51.0227C73.1953 50.0384 73.7131 49.2031 74.3906 48.517C75.0724 47.8267 75.8991 47.3004 76.8707 46.9382C77.8466 46.576 78.9503 46.3949 80.1818 46.3949C81.3793 46.3949 82.4276 46.5909 83.3267 46.983C84.2301 47.3707 84.9844 47.897 85.5895 48.5618C86.1989 49.2223 86.6548 49.9659 86.9574 50.7926C87.2642 51.6193 87.4176 52.4716 87.4176 53.3494C87.4176 53.9673 87.3878 54.5937 87.3281 55.2287C87.2685 55.8636 87.1428 56.4474 86.951 56.9801C86.7592 57.5085 86.4631 57.9347 86.0625 58.2585C85.6662 58.5824 85.1293 58.7443 84.4517 58.7443C84.1534 58.7443 83.8253 58.6974 83.4673 58.6037C83.1094 58.5099 82.7919 58.3544 82.5149 58.1371C82.2379 57.9197 82.0739 57.6278 82.0227 57.2614H81.946C81.8438 57.5085 81.6861 57.7429 81.473 57.9645C81.2642 58.1861 80.9893 58.3629 80.6484 58.495C80.3118 58.6271 79.9006 58.6847 79.4148 58.6676C78.8608 58.6463 78.3729 58.5227 77.951 58.2969C77.5291 58.0668 77.1754 57.7557 76.8899 57.3636C76.6087 56.9673 76.3956 56.5092 76.2507 55.9893C76.1101 55.4652 76.0398 54.9006 76.0398 54.2955C76.0398 53.7202 76.125 53.1939 76.2955 52.7166C76.4659 52.2393 76.7024 51.8217 77.005 51.4638C77.3118 51.1058 77.6697 50.8203 78.0788 50.6072C78.4922 50.3899 78.9375 50.2557 79.4148 50.2045C79.8409 50.1619 80.2287 50.1811 80.5781 50.2621C80.9276 50.3388 81.2152 50.456 81.4411 50.6136C81.6669 50.767 81.8097 50.9375 81.8693 51.125H81.946V50.4091H83.3011V56.1875C83.3011 56.5455 83.4013 56.8608 83.6016 57.1335C83.8018 57.4062 84.0938 57.5426 84.4773 57.5426C84.9119 57.5426 85.2443 57.3935 85.4744 57.0952C85.7088 56.7969 85.8686 56.3366 85.9538 55.7145C86.0433 55.0923 86.0881 54.2955 86.0881 53.3239C86.0881 52.7528 86.0092 52.1903 85.8516 51.6364C85.6982 51.0781 85.4638 50.5561 85.1484 50.0703C84.8374 49.5845 84.4432 49.1562 83.9659 48.7855C83.4886 48.4148 82.9283 48.125 82.2848 47.9162C81.6456 47.7031 80.919 47.5966 80.1051 47.5966C79.1037 47.5966 78.2067 47.7521 77.4141 48.0632C76.6257 48.37 75.9545 48.8196 75.4006 49.4119C74.8509 50 74.4311 50.7159 74.1413 51.5597C73.8558 52.3991 73.7131 53.3537 73.7131 54.4233C73.7131 55.5099 73.8558 56.4751 74.1413 57.3189C74.4311 58.1626 74.8572 58.8743 75.4197 59.4538C75.9865 60.0334 76.6875 60.4723 77.5227 60.7706C78.358 61.0732 79.321 61.2244 80.4119 61.2244C80.8807 61.2244 81.343 61.1797 81.799 61.0902C82.255 61.0007 82.6577 60.9027 83.0071 60.7962C83.3565 60.6896 83.608 60.6108 83.7614 60.5597L84.1193 61.7358C83.8551 61.8466 83.5099 61.9574 83.0838 62.0682C82.6619 62.179 82.2102 62.2706 81.7287 62.343C81.2514 62.4155 80.7955 62.4517 80.3608 62.4517ZM79.6193 57.3636C80.1903 57.3636 80.6527 57.2486 81.0064 57.0185C81.3601 56.7884 81.6179 56.4411 81.7798 55.9766C81.9418 55.5121 82.0227 54.9261 82.0227 54.2188C82.0227 53.5028 81.9332 52.9446 81.7543 52.544C81.5753 52.1435 81.3111 51.8622 80.9616 51.7003C80.6122 51.5384 80.1818 51.4574 79.6705 51.4574C79.1847 51.4574 78.7692 51.5852 78.424 51.8409C78.0831 52.0923 77.821 52.429 77.6378 52.8509C77.4588 53.2685 77.3693 53.7244 77.3693 54.2188C77.3693 54.7642 77.4418 55.2777 77.5866 55.7592C77.7315 56.2365 77.968 56.6243 78.2962 56.9226C78.6243 57.2166 79.0653 57.3636 79.6193 57.3636ZM93.6387 62.8864C92.91 62.8864 92.2836 62.7926 91.7594 62.6051C91.2353 62.4219 90.7985 62.179 90.449 61.8764C90.1039 61.5781 89.829 61.2585 89.6245 60.9176L90.8262 60.0739C90.9625 60.2528 91.1351 60.4574 91.3439 60.6875C91.5527 60.9219 91.8382 61.1243 92.2005 61.2947C92.5669 61.4695 93.0463 61.5568 93.6387 61.5568C94.4313 61.5568 95.0854 61.3651 95.601 60.9815C96.1167 60.598 96.3745 59.9972 96.3745 59.179V57.1847H96.2466C96.1358 57.3636 95.9782 57.5852 95.7736 57.8494C95.5733 58.1094 95.2836 58.3416 94.9043 58.5462C94.5293 58.7464 94.0222 58.8466 93.383 58.8466C92.5904 58.8466 91.8787 58.6591 91.248 58.2841C90.6216 57.9091 90.1252 57.3636 89.7587 56.6477C89.3965 55.9318 89.2154 55.0625 89.2154 54.0398C89.2154 53.0341 89.3922 52.1584 89.7459 51.4126C90.0996 50.6626 90.5918 50.0831 91.2225 49.674C91.8532 49.2607 92.5819 49.054 93.4086 49.054C94.0478 49.054 94.5549 49.1605 94.9299 49.3736C95.3091 49.5824 95.5989 49.821 95.7992 50.0895C96.0037 50.3537 96.1614 50.571 96.2722 50.7415H96.4256V49.1818H97.883V59.2812C97.883 60.125 97.6912 60.8111 97.3077 61.3395C96.9284 61.8722 96.4171 62.2621 95.7736 62.5092C95.1344 62.7607 94.4228 62.8864 93.6387 62.8864ZM93.5875 57.4915C94.1926 57.4915 94.704 57.353 95.1216 57.076C95.5392 56.799 95.8567 56.4006 96.074 55.8807C96.2914 55.3608 96.4 54.7386 96.4 54.0142C96.4 53.3068 96.2935 52.6825 96.0804 52.1413C95.8674 51.6001 95.552 51.1761 95.1344 50.8693C94.7168 50.5625 94.2012 50.4091 93.5875 50.4091C92.9483 50.4091 92.4157 50.571 91.9895 50.8949C91.5676 51.2187 91.2502 51.6534 91.0371 52.1989C90.8283 52.7443 90.7239 53.3494 90.7239 54.0142C90.7239 54.696 90.8304 55.299 91.0435 55.8232C91.2608 56.343 91.5804 56.7521 92.0023 57.0504C92.4284 57.3445 92.9569 57.4915 93.5875 57.4915ZM100.644 59V49.1818H102.102V50.7159H102.23C102.434 50.1918 102.764 49.7848 103.22 49.495C103.676 49.201 104.224 49.054 104.863 49.054C105.511 49.054 106.05 49.201 106.48 49.495C106.915 49.7848 107.254 50.1918 107.497 50.7159H107.599C107.85 50.2088 108.227 49.8061 108.73 49.5078C109.233 49.2053 109.836 49.054 110.539 49.054C111.417 49.054 112.135 49.3288 112.693 49.8786C113.252 50.424 113.531 51.2741 113.531 52.429V59H112.022V52.429C112.022 51.7045 111.824 51.1868 111.428 50.8757C111.031 50.5646 110.565 50.4091 110.028 50.4091C109.338 50.4091 108.803 50.6179 108.423 51.0355C108.044 51.4489 107.855 51.973 107.855 52.608V59H106.32V52.2756C106.32 51.7173 106.139 51.2678 105.777 50.9268C105.415 50.5817 104.948 50.4091 104.377 50.4091C103.985 50.4091 103.619 50.5135 103.278 50.7223C102.941 50.9311 102.669 51.2209 102.46 51.5916C102.255 51.9581 102.153 52.3821 102.153 52.8636V59H100.644ZM119.178 59.2301C118.556 59.2301 117.991 59.1129 117.484 58.8786C116.977 58.6399 116.574 58.2969 116.276 57.8494C115.978 57.3977 115.829 56.8523 115.829 56.2131C115.829 55.6506 115.939 55.1946 116.161 54.8452C116.383 54.4915 116.679 54.2145 117.05 54.0142C117.42 53.8139 117.829 53.6648 118.277 53.5668C118.729 53.4645 119.182 53.3835 119.638 53.3239C120.235 53.2472 120.719 53.1896 121.089 53.1513C121.464 53.1087 121.737 53.0384 121.907 52.9403C122.082 52.8423 122.17 52.6719 122.17 52.429V52.3778C122.17 51.7472 121.997 51.2571 121.652 50.9077C121.311 50.5582 120.793 50.3835 120.099 50.3835C119.378 50.3835 118.814 50.5412 118.405 50.8565C117.996 51.1719 117.708 51.5085 117.542 51.8665L116.11 51.3551C116.366 50.7585 116.706 50.294 117.133 49.9616C117.563 49.625 118.032 49.3906 118.539 49.2585C119.05 49.1222 119.553 49.054 120.047 49.054C120.363 49.054 120.725 49.0923 121.134 49.169C121.547 49.2415 121.946 49.3928 122.329 49.6229C122.717 49.853 123.039 50.2003 123.295 50.6648C123.55 51.1293 123.678 51.7514 123.678 52.5312V59H122.17V57.6705H122.093C121.991 57.8835 121.82 58.1115 121.581 58.3544C121.343 58.5973 121.025 58.804 120.629 58.9744C120.233 59.1449 119.749 59.2301 119.178 59.2301ZM119.408 57.875C120.005 57.875 120.508 57.7578 120.917 57.5234C121.33 57.2891 121.641 56.9865 121.85 56.6158C122.063 56.245 122.17 55.8551 122.17 55.446V54.0653C122.106 54.142 121.965 54.2124 121.748 54.2763C121.535 54.3359 121.287 54.3892 121.006 54.4361C120.729 54.4787 120.459 54.517 120.194 54.5511C119.934 54.581 119.724 54.6065 119.562 54.6278C119.17 54.679 118.803 54.7621 118.462 54.8771C118.126 54.9879 117.853 55.1562 117.644 55.3821C117.439 55.6037 117.337 55.9062 117.337 56.2898C117.337 56.8139 117.531 57.2102 117.919 57.4787C118.311 57.7429 118.807 57.875 119.408 57.875ZM126.431 59V49.1818H127.94V59H126.431ZM127.199 47.5455C126.904 47.5455 126.651 47.4453 126.438 47.245C126.229 47.0447 126.125 46.804 126.125 46.5227C126.125 46.2415 126.229 46.0007 126.438 45.8004C126.651 45.6001 126.904 45.5 127.199 45.5C127.493 45.5 127.744 45.6001 127.953 45.8004C128.166 46.0007 128.272 46.2415 128.272 46.5227C128.272 46.804 128.166 47.0447 127.953 47.245C127.744 47.4453 127.493 47.5455 127.199 47.5455ZM132.211 45.9091V59H130.703V45.9091H132.211ZM136.074 59.1023C135.759 59.1023 135.488 58.9893 135.262 58.7635C135.036 58.5376 134.923 58.267 134.923 57.9517C134.923 57.6364 135.036 57.3658 135.262 57.1399C135.488 56.9141 135.759 56.8011 136.074 56.8011C136.389 56.8011 136.66 56.9141 136.886 57.1399C137.112 57.3658 137.224 57.6364 137.224 57.9517C137.224 58.1605 137.171 58.3523 137.065 58.527C136.962 58.7017 136.824 58.8423 136.649 58.9489C136.479 59.0511 136.287 59.1023 136.074 59.1023ZM143.92 59.2045C143 59.2045 142.207 58.9872 141.542 58.5526C140.877 58.1179 140.366 57.5192 140.008 56.7564C139.65 55.9936 139.471 55.1222 139.471 54.142C139.471 53.1449 139.654 52.2649 140.021 51.5021C140.392 50.7351 140.907 50.1364 141.568 49.706C142.233 49.2713 143.008 49.054 143.895 49.054C144.585 49.054 145.207 49.1818 145.761 49.4375C146.315 49.6932 146.769 50.0511 147.123 50.5114C147.476 50.9716 147.696 51.5085 147.781 52.1222H146.272C146.157 51.6747 145.902 51.2784 145.505 50.9332C145.113 50.5838 144.585 50.4091 143.92 50.4091C143.332 50.4091 142.816 50.5625 142.373 50.8693C141.934 51.1719 141.591 51.6001 141.344 52.1541C141.101 52.7038 140.98 53.3494 140.98 54.0909C140.98 54.8494 141.099 55.5099 141.338 56.0724C141.581 56.6349 141.922 57.0717 142.36 57.3828C142.804 57.6939 143.324 57.8494 143.92 57.8494C144.312 57.8494 144.668 57.7812 144.988 57.6449C145.307 57.5085 145.578 57.3125 145.799 57.0568C146.021 56.8011 146.179 56.4943 146.272 56.1364H147.781C147.696 56.7159 147.485 57.2379 147.148 57.7024C146.816 58.1626 146.375 58.5291 145.825 58.8018C145.279 59.0703 144.645 59.2045 143.92 59.2045ZM153.975 59.2045C153.088 59.2045 152.311 58.9936 151.642 58.5717C150.977 58.1499 150.457 57.5597 150.082 56.8011C149.711 56.0426 149.526 55.1562 149.526 54.142C149.526 53.1193 149.711 52.2266 150.082 51.4638C150.457 50.701 150.977 50.1087 151.642 49.6868C152.311 49.2649 153.088 49.054 153.975 49.054C154.861 49.054 155.637 49.2649 156.301 49.6868C156.971 50.1087 157.49 50.701 157.861 51.4638C158.236 52.2266 158.424 53.1193 158.424 54.142C158.424 55.1562 158.236 56.0426 157.861 56.8011C157.49 57.5597 156.971 58.1499 156.301 58.5717C155.637 58.9936 154.861 59.2045 153.975 59.2045ZM153.975 57.8494C154.648 57.8494 155.202 57.6768 155.637 57.3317C156.071 56.9865 156.393 56.5327 156.602 55.9702C156.811 55.4077 156.915 54.7983 156.915 54.142C156.915 53.4858 156.811 52.8743 156.602 52.3075C156.393 51.7408 156.071 51.2827 155.637 50.9332C155.202 50.5838 154.648 50.4091 153.975 50.4091C153.301 50.4091 152.748 50.5838 152.313 50.9332C151.878 51.2827 151.556 51.7408 151.348 52.3075C151.139 52.8743 151.034 53.4858 151.034 54.142C151.034 54.7983 151.139 55.4077 151.348 55.9702C151.556 56.5327 151.878 56.9865 152.313 57.3317C152.748 57.6768 153.301 57.8494 153.975 57.8494ZM160.726 59V49.1818H162.184V50.7159H162.312C162.516 50.1918 162.846 49.7848 163.302 49.495C163.758 49.201 164.306 49.054 164.945 49.054C165.593 49.054 166.132 49.201 166.562 49.495C166.997 49.7848 167.336 50.1918 167.579 50.7159H167.681C167.932 50.2088 168.309 49.8061 168.812 49.5078C169.315 49.2053 169.918 49.054 170.621 49.054C171.499 49.054 172.217 49.3288 172.775 49.8786C173.334 50.424 173.613 51.2741 173.613 52.429V59H172.104V52.429C172.104 51.7045 171.906 51.1868 171.51 50.8757C171.113 50.5646 170.647 50.4091 170.11 50.4091C169.42 50.4091 168.885 50.6179 168.506 51.0355C168.126 51.4489 167.937 51.973 167.937 52.608V59H166.403V52.2756C166.403 51.7173 166.221 51.2678 165.859 50.9268C165.497 50.5817 165.03 50.4091 164.459 50.4091C164.067 50.4091 163.701 50.5135 163.36 50.7223C163.023 50.9311 162.751 51.2209 162.542 51.5916C162.337 51.9581 162.235 52.3821 162.235 52.8636V59H160.726Z" fill="#787878"/>
<path d="M3.60511 97L0.613636 87.1818H2.19886L4.32102 94.6989H4.4233L6.51989 87.1818H8.13068L10.2017 94.6733H10.304L12.4261 87.1818H14.0114L11.0199 97H9.53693L7.3892 89.4574H7.2358L5.08807 97H3.60511ZM18.2301 97L15.2386 87.1818H16.8239L18.946 94.6989H19.0483L21.1449 87.1818H22.7557L24.8267 94.6733H24.929L27.0511 87.1818H28.6364L25.6449 97H24.1619L22.0142 89.4574H21.8608L19.7131 97H18.2301ZM32.8551 97L29.8636 87.1818H31.4489L33.571 94.6989H33.6733L35.7699 87.1818H37.3807L39.4517 94.6733H39.554L41.6761 87.1818H43.2614L40.2699 97H38.7869L36.6392 89.4574H36.4858L34.3381 97H32.8551ZM45.0192 97.1023C44.7038 97.1023 44.4332 96.9893 44.2074 96.7635C43.9815 96.5376 43.8686 96.267 43.8686 95.9517C43.8686 95.6364 43.9815 95.3658 44.2074 95.1399C44.4332 94.9141 44.7038 94.8011 45.0192 94.8011C45.3345 94.8011 45.6051 94.9141 45.831 95.1399C46.0568 95.3658 46.1697 95.6364 46.1697 95.9517C46.1697 96.1605 46.1165 96.3523 46.0099 96.527C45.9077 96.7017 45.7692 96.8423 45.5945 96.9489C45.424 97.0511 45.2322 97.1023 45.0192 97.1023ZM48.8768 100.682V87.1818H50.3342V88.7415H50.5131C50.6239 88.571 50.7773 88.3537 50.9734 88.0895C51.1737 87.821 51.4592 87.5824 51.8299 87.3736C52.2049 87.1605 52.712 87.054 53.3512 87.054C54.1779 87.054 54.9066 87.2607 55.5373 87.674C56.168 88.0874 56.6602 88.6733 57.0139 89.4318C57.3675 90.1903 57.5444 91.0852 57.5444 92.1165C57.5444 93.1562 57.3675 94.0575 57.0139 94.8203C56.6602 95.5788 56.1701 96.1669 55.5437 96.5845C54.9173 96.9979 54.195 97.2045 53.3768 97.2045C52.7461 97.2045 52.2411 97.1001 51.8619 96.8913C51.4826 96.6783 51.1907 96.4375 50.9862 96.169C50.7816 95.8963 50.6239 95.6705 50.5131 95.4915H50.3853V100.682H48.8768ZM50.3597 92.0909C50.3597 92.8324 50.4684 93.4865 50.6857 94.0533C50.9031 94.6158 51.2205 95.0568 51.6381 95.3764C52.0558 95.6918 52.5671 95.8494 53.1722 95.8494C53.8029 95.8494 54.3292 95.6832 54.7511 95.3509C55.1772 95.0142 55.4968 94.5625 55.7099 93.9957C55.9272 93.4247 56.0359 92.7898 56.0359 92.0909C56.0359 91.4006 55.9293 90.7784 55.7163 90.2244C55.5075 89.6662 55.19 89.2251 54.7638 88.9013C54.342 88.5732 53.8114 88.4091 53.1722 88.4091C52.5586 88.4091 52.043 88.5646 51.6254 88.8757C51.2077 89.1825 50.8924 89.6129 50.6793 90.1669C50.4663 90.7166 50.3597 91.358 50.3597 92.0909ZM63.8342 97.2045C62.9478 97.2045 62.1701 96.9936 61.5011 96.5717C60.8363 96.1499 60.3164 95.5597 59.9414 94.8011C59.5707 94.0426 59.3853 93.1562 59.3853 92.142C59.3853 91.1193 59.5707 90.2266 59.9414 89.4638C60.3164 88.701 60.8363 88.1087 61.5011 87.6868C62.1701 87.2649 62.9478 87.054 63.8342 87.054C64.7205 87.054 65.4961 87.2649 66.1609 87.6868C66.8299 88.1087 67.3498 88.701 67.7205 89.4638C68.0955 90.2266 68.283 91.1193 68.283 92.142C68.283 93.1562 68.0955 94.0426 67.7205 94.8011C67.3498 95.5597 66.8299 96.1499 66.1609 96.5717C65.4961 96.9936 64.7205 97.2045 63.8342 97.2045ZM63.8342 95.8494C64.5075 95.8494 65.0614 95.6768 65.4961 95.3317C65.9308 94.9865 66.2525 94.5327 66.4613 93.9702C66.6701 93.4077 66.7745 92.7983 66.7745 92.142C66.7745 91.4858 66.6701 90.8743 66.4613 90.3075C66.2525 89.7408 65.9308 89.2827 65.4961 88.9332C65.0614 88.5838 64.5075 88.4091 63.8342 88.4091C63.1609 88.4091 62.6069 88.5838 62.1722 88.9332C61.7376 89.2827 61.4158 89.7408 61.207 90.3075C60.9982 90.8743 60.8938 91.4858 60.8938 92.142C60.8938 92.7983 60.9982 93.4077 61.207 93.9702C61.4158 94.5327 61.7376 94.9865 62.1722 95.3317C62.6069 95.6768 63.1609 95.8494 63.8342 95.8494ZM70.5858 97V87.1818H72.0431V88.6648H72.1454C72.3244 88.179 72.6483 87.7848 73.117 87.4822C73.5858 87.1797 74.1142 87.0284 74.7022 87.0284C74.813 87.0284 74.9515 87.0305 75.1177 87.0348C75.2839 87.0391 75.4096 87.0455 75.4949 87.054V88.5881C75.4437 88.5753 75.3265 88.5561 75.1433 88.5305C74.9643 88.5007 74.7747 88.4858 74.5744 88.4858C74.0971 88.4858 73.671 88.5859 73.296 88.7862C72.9252 88.9822 72.6312 89.255 72.4139 89.6044C72.2008 89.9496 72.0943 90.3437 72.0943 90.7869V97H70.5858ZM82.1681 87.1818V88.4602H77.0801V87.1818H82.1681ZM78.563 84.8295H80.0716V94.1875C80.0716 94.6136 80.1333 94.9332 80.2569 95.1463C80.3848 95.3551 80.5467 95.4957 80.7427 95.5682C80.943 95.6364 81.1539 95.6705 81.3755 95.6705C81.5417 95.6705 81.6781 95.6619 81.7846 95.6449C81.8912 95.6236 81.9764 95.6065 82.0403 95.5938L82.3471 96.9489C82.2449 96.9872 82.1021 97.0256 81.9189 97.0639C81.7356 97.1065 81.5034 97.1278 81.2221 97.1278C80.796 97.1278 80.3784 97.0362 79.9693 96.853C79.5645 96.6697 79.2278 96.3906 78.9593 96.0156C78.6951 95.6406 78.563 95.1676 78.563 94.5966V84.8295ZM88.8095 87.1818V88.4602H83.5169V87.1818H88.8095ZM85.1021 97V85.8267C85.1021 85.2642 85.2342 84.7955 85.4984 84.4205C85.7626 84.0455 86.1056 83.7642 86.5275 83.5767C86.9494 83.3892 87.3947 83.2955 87.8635 83.2955C88.2342 83.2955 88.5368 83.3253 88.7711 83.3849C89.0055 83.4446 89.1802 83.5 89.2953 83.5511L88.8606 84.8551C88.7839 84.8295 88.6774 84.7976 88.541 84.7592C88.4089 84.7209 88.2342 84.7017 88.0169 84.7017C87.5183 84.7017 87.1582 84.8274 86.9366 85.0788C86.7193 85.3303 86.6106 85.6989 86.6106 86.1847V97H85.1021ZM94.508 97.2045C93.6216 97.2045 92.8439 96.9936 92.1749 96.5717C91.5101 96.1499 90.9902 95.5597 90.6152 94.8011C90.2445 94.0426 90.0591 93.1562 90.0591 92.142C90.0591 91.1193 90.2445 90.2266 90.6152 89.4638C90.9902 88.701 91.5101 88.1087 92.1749 87.6868C92.8439 87.2649 93.6216 87.054 94.508 87.054C95.3944 87.054 96.1699 87.2649 96.8347 87.6868C97.5037 88.1087 98.0236 88.701 98.3944 89.4638C98.7694 90.2266 98.9569 91.1193 98.9569 92.142C98.9569 93.1562 98.7694 94.0426 98.3944 94.8011C98.0236 95.5597 97.5037 96.1499 96.8347 96.5717C96.1699 96.9936 95.3944 97.2045 94.508 97.2045ZM94.508 95.8494C95.1813 95.8494 95.7353 95.6768 96.1699 95.3317C96.6046 94.9865 96.9263 94.5327 97.1351 93.9702C97.3439 93.4077 97.4483 92.7983 97.4483 92.142C97.4483 91.4858 97.3439 90.8743 97.1351 90.3075C96.9263 89.7408 96.6046 89.2827 96.1699 88.9332C95.7353 88.5838 95.1813 88.4091 94.508 88.4091C93.8347 88.4091 93.2807 88.5838 92.8461 88.9332C92.4114 89.2827 92.0897 89.7408 91.8809 90.3075C91.6721 90.8743 91.5676 91.4858 91.5676 92.142C91.5676 92.7983 91.6721 93.4077 91.8809 93.9702C92.0897 94.5327 92.4114 94.9865 92.8461 95.3317C93.2807 95.6768 93.8347 95.8494 94.508 95.8494ZM102.768 83.9091V97H101.26V83.9091H102.768ZM105.531 97V87.1818H107.04V97H105.531ZM106.298 85.5455C106.004 85.5455 105.751 85.4453 105.537 85.245C105.329 85.0447 105.224 84.804 105.224 84.5227C105.224 84.2415 105.329 84.0007 105.537 83.8004C105.751 83.6001 106.004 83.5 106.298 83.5C106.592 83.5 106.844 83.6001 107.052 83.8004C107.265 84.0007 107.372 84.2415 107.372 84.5227C107.372 84.804 107.265 85.0447 107.052 85.245C106.844 85.4453 106.592 85.5455 106.298 85.5455ZM113.791 97.2045C112.905 97.2045 112.127 96.9936 111.458 96.5717C110.793 96.1499 110.273 95.5597 109.898 94.8011C109.528 94.0426 109.342 93.1562 109.342 92.142C109.342 91.1193 109.528 90.2266 109.898 89.4638C110.273 88.701 110.793 88.1087 111.458 87.6868C112.127 87.2649 112.905 87.054 113.791 87.054C114.678 87.054 115.453 87.2649 116.118 87.6868C116.787 88.1087 117.307 88.701 117.678 89.4638C118.053 90.2266 118.24 91.1193 118.24 92.142C118.24 93.1562 118.053 94.0426 117.678 94.8011C117.307 95.5597 116.787 96.1499 116.118 96.5717C115.453 96.9936 114.678 97.2045 113.791 97.2045ZM113.791 95.8494C114.464 95.8494 115.018 95.6768 115.453 95.3317C115.888 94.9865 116.21 94.5327 116.418 93.9702C116.627 93.4077 116.732 92.7983 116.732 92.142C116.732 91.4858 116.627 90.8743 116.418 90.3075C116.21 89.7408 115.888 89.2827 115.453 88.9332C115.018 88.5838 114.464 88.4091 113.791 88.4091C113.118 88.4091 112.564 88.5838 112.129 88.9332C111.695 89.2827 111.373 89.7408 111.164 90.3075C110.955 90.8743 110.851 91.4858 110.851 92.142C110.851 92.7983 110.955 93.4077 111.164 93.9702C111.373 94.5327 111.695 94.9865 112.129 95.3317C112.564 95.6768 113.118 95.8494 113.791 95.8494ZM121.642 97.1023C121.327 97.1023 121.056 96.9893 120.83 96.7635C120.605 96.5376 120.492 96.267 120.492 95.9517C120.492 95.6364 120.605 95.3658 120.83 95.1399C121.056 94.9141 121.327 94.8011 121.642 94.8011C121.958 94.8011 122.228 94.9141 122.454 95.1399C122.68 95.3658 122.793 95.6364 122.793 95.9517C122.793 96.1605 122.74 96.3523 122.633 96.527C122.531 96.7017 122.392 96.8423 122.218 96.9489C122.047 97.0511 121.855 97.1023 121.642 97.1023ZM129.488 97.2045C128.568 97.2045 127.775 96.9872 127.111 96.5526C126.446 96.1179 125.934 95.5192 125.577 94.7564C125.219 93.9936 125.04 93.1222 125.04 92.142C125.04 91.1449 125.223 90.2649 125.589 89.5021C125.96 88.7351 126.476 88.1364 127.136 87.706C127.801 87.2713 128.577 87.054 129.463 87.054C130.153 87.054 130.775 87.1818 131.329 87.4375C131.883 87.6932 132.337 88.0511 132.691 88.5114C133.045 88.9716 133.264 89.5085 133.349 90.1222H131.841C131.726 89.6747 131.47 89.2784 131.074 88.9332C130.682 88.5838 130.153 88.4091 129.488 88.4091C128.9 88.4091 128.385 88.5625 127.942 88.8693C127.503 89.1719 127.16 89.6001 126.912 90.1541C126.67 90.7038 126.548 91.3494 126.548 92.0909C126.548 92.8494 126.667 93.5099 126.906 94.0724C127.149 94.6349 127.49 95.0717 127.929 95.3828C128.372 95.6939 128.892 95.8494 129.488 95.8494C129.881 95.8494 130.236 95.7812 130.556 95.6449C130.876 95.5085 131.146 95.3125 131.368 95.0568C131.589 94.8011 131.747 94.4943 131.841 94.1364H133.349C133.264 94.7159 133.053 95.2379 132.716 95.7024C132.384 96.1626 131.943 96.5291 131.393 96.8018C130.848 97.0703 130.213 97.2045 129.488 97.2045ZM139.543 97.2045C138.657 97.2045 137.879 96.9936 137.21 96.5717C136.545 96.1499 136.025 95.5597 135.65 94.8011C135.28 94.0426 135.094 93.1562 135.094 92.142C135.094 91.1193 135.28 90.2266 135.65 89.4638C136.025 88.701 136.545 88.1087 137.21 87.6868C137.879 87.2649 138.657 87.054 139.543 87.054C140.43 87.054 141.205 87.2649 141.87 87.6868C142.539 88.1087 143.059 88.701 143.43 89.4638C143.805 90.2266 143.992 91.1193 143.992 92.142C143.992 93.1562 143.805 94.0426 143.43 94.8011C143.059 95.5597 142.539 96.1499 141.87 96.5717C141.205 96.9936 140.43 97.2045 139.543 97.2045ZM139.543 95.8494C140.216 95.8494 140.77 95.6768 141.205 95.3317C141.64 94.9865 141.961 94.5327 142.17 93.9702C142.379 93.4077 142.483 92.7983 142.483 92.142C142.483 91.4858 142.379 90.8743 142.17 90.3075C141.961 89.7408 141.64 89.2827 141.205 88.9332C140.77 88.5838 140.216 88.4091 139.543 88.4091C138.87 88.4091 138.316 88.5838 137.881 88.9332C137.447 89.2827 137.125 89.7408 136.916 90.3075C136.707 90.8743 136.603 91.4858 136.603 92.142C136.603 92.7983 136.707 93.4077 136.916 93.9702C137.125 94.5327 137.447 94.9865 137.881 95.3317C138.316 95.6768 138.87 95.8494 139.543 95.8494ZM146.295 97V87.1818H147.752V88.7159H147.88C148.085 88.1918 148.415 87.7848 148.871 87.495C149.327 87.201 149.874 87.054 150.513 87.054C151.161 87.054 151.7 87.201 152.131 87.495C152.565 87.7848 152.904 88.1918 153.147 88.7159H153.249C153.501 88.2088 153.878 87.8061 154.381 87.5078C154.884 87.2053 155.487 87.054 156.19 87.054C157.067 87.054 157.786 87.3288 158.344 87.8786C158.902 88.424 159.181 89.2741 159.181 90.429V97H157.673V90.429C157.673 89.7045 157.474 89.1868 157.078 88.8757C156.682 88.5646 156.215 88.4091 155.678 88.4091C154.988 88.4091 154.453 88.6179 154.074 89.0355C153.695 89.4489 153.505 89.973 153.505 90.608V97H151.971V90.2756C151.971 89.7173 151.79 89.2678 151.428 88.9268C151.065 88.5817 150.599 88.4091 150.028 88.4091C149.636 88.4091 149.269 88.5135 148.928 88.7223C148.592 88.9311 148.319 89.2209 148.11 89.5916C147.906 89.9581 147.803 90.3821 147.803 90.8636V97H146.295Z" fill="#787878"/>
</svg>
