<svg width="73" height="180" viewBox="0 0 73 180" fill="none" xmlns="http://www.w3.org/2000/svg">
<path d="M1.58523 21V7.90909H3.17045V13.7386H10.1506V7.90909H11.7358V21H10.1506V15.1449H3.17045V21H1.58523ZM18.6935 21.2045C17.8072 21.2045 17.0295 20.9936 16.3604 20.5717C15.6957 20.1499 15.1758 19.5597 14.8008 18.8011C14.43 18.0426 14.2447 17.1562 14.2447 16.142C14.2447 15.1193 14.43 14.2266 14.8008 13.4638C15.1758 12.701 15.6957 12.1087 16.3604 11.6868C17.0295 11.2649 17.8072 11.054 18.6935 11.054C19.5799 11.054 20.3555 11.2649 21.0202 11.6868C21.6893 12.1087 22.2092 12.701 22.5799 13.4638C22.9549 14.2266 23.1424 15.1193 23.1424 16.142C23.1424 17.1562 22.9549 18.0426 22.5799 18.8011C22.2092 19.5597 21.6893 20.1499 21.0202 20.5717C20.3555 20.9936 19.5799 21.2045 18.6935 21.2045ZM18.6935 19.8494C19.3668 19.8494 19.9208 19.6768 20.3555 19.3317C20.7901 18.9865 21.1119 18.5327 21.3207 17.9702C21.5295 17.4077 21.6339 16.7983 21.6339 16.142C21.6339 15.4858 21.5295 14.8743 21.3207 14.3075C21.1119 13.7408 20.7901 13.2827 20.3555 12.9332C19.9208 12.5838 19.3668 12.4091 18.6935 12.4091C18.0202 12.4091 17.4663 12.5838 17.0316 12.9332C16.5969 13.2827 16.2752 13.7408 16.0664 14.3075C15.8576 14.8743 15.7532 15.4858 15.7532 16.142C15.7532 16.7983 15.8576 17.4077 16.0664 17.9702C16.2752 18.5327 16.5969 18.9865 17.0316 19.3317C17.4663 19.6768 18.0202 19.8494 18.6935 19.8494ZM25.4451 21V11.1818H26.9025V12.7159H27.0304C27.2349 12.1918 27.5652 11.7848 28.0211 11.495C28.4771 11.201 29.0247 11.054 29.6639 11.054C30.3116 11.054 30.8507 11.201 31.2811 11.495C31.7157 11.7848 32.0545 12.1918 32.2974 12.7159H32.3997C32.6511 12.2088 33.0282 11.8061 33.5311 11.5078C34.0339 11.2053 34.6369 11.054 35.34 11.054C36.2179 11.054 36.9359 11.3288 37.4941 11.8786C38.0524 12.424 38.3315 13.2741 38.3315 14.429V21H36.823V14.429C36.823 13.7045 36.6248 13.1868 36.2285 12.8757C35.8322 12.5646 35.3656 12.4091 34.8287 12.4091C34.1383 12.4091 33.6035 12.6179 33.2243 13.0355C32.845 13.4489 32.6554 13.973 32.6554 14.608V21H31.1213V14.2756C31.1213 13.7173 30.9402 13.2678 30.5779 12.9268C30.2157 12.5817 29.7491 12.4091 29.1781 12.4091C28.786 12.4091 28.4196 12.5135 28.0787 12.7223C27.742 12.9311 27.4693 13.2209 27.2605 13.5916C27.0559 13.9581 26.9537 14.3821 26.9537 14.8636V21H25.4451ZM45.2061 21.2045C44.2601 21.2045 43.4441 20.9957 42.758 20.5781C42.0762 20.1562 41.5499 19.5682 41.1792 18.8139C40.8127 18.0554 40.6294 17.1733 40.6294 16.1676C40.6294 15.1619 40.8127 14.2756 41.1792 13.5085C41.5499 12.7372 42.0655 12.1364 42.726 11.706C43.3908 11.2713 44.1664 11.054 45.0527 11.054C45.5641 11.054 46.0691 11.1392 46.5676 11.3097C47.0662 11.4801 47.5201 11.7571 47.9292 12.1406C48.3382 12.5199 48.6642 13.0227 48.9071 13.6491C49.15 14.2756 49.2715 15.0469 49.2715 15.9631V16.6023H41.7033V15.2983H47.7374C47.7374 14.7443 47.6266 14.25 47.405 13.8153C47.1877 13.3807 46.8766 13.0376 46.4718 12.7862C46.0712 12.5348 45.5982 12.4091 45.0527 12.4091C44.4519 12.4091 43.932 12.5582 43.4931 12.8565C43.0584 13.1506 42.7239 13.5341 42.4895 14.0071C42.2551 14.4801 42.138 14.9872 42.138 15.5284V16.3977C42.138 17.1392 42.2658 17.7678 42.5215 18.2834C42.7814 18.7947 43.1415 19.1847 43.6017 19.4531C44.062 19.7173 44.5968 19.8494 45.2061 19.8494C45.6025 19.8494 45.9604 19.794 46.28 19.6832C46.6039 19.5682 46.883 19.3977 47.1174 19.1719C47.3517 18.9418 47.5328 18.6562 47.6607 18.3153L49.1181 18.7244C48.9647 19.2188 48.7069 19.6534 48.3446 20.0284C47.9824 20.3991 47.535 20.6889 47.0023 20.8977C46.4696 21.1023 45.8709 21.2045 45.2061 21.2045Z" fill="#787878"/>
<path d="M1.58523 135V121.909H6.00852C7.03551 121.909 7.875 122.094 8.52699 122.465C9.18324 122.832 9.66903 123.328 9.98438 123.955C10.2997 124.581 10.4574 125.28 10.4574 126.051C10.4574 126.822 10.2997 127.523 9.98438 128.154C9.6733 128.785 9.19176 129.288 8.53977 129.663C7.88778 130.033 7.05256 130.219 6.03409 130.219H2.86364V128.812H5.98295C6.68608 128.812 7.25071 128.691 7.67685 128.448C8.10298 128.205 8.41193 127.877 8.60369 127.464C8.79972 127.046 8.89773 126.575 8.89773 126.051C8.89773 125.527 8.79972 125.058 8.60369 124.645C8.41193 124.232 8.10085 123.908 7.67045 123.673C7.24006 123.435 6.66903 123.315 5.95739 123.315H3.17045V135H1.58523ZM16.6896 135.205C15.8033 135.205 15.0256 134.994 14.3565 134.572C13.6918 134.15 13.1719 133.56 12.7969 132.801C12.4261 132.043 12.2408 131.156 12.2408 130.142C12.2408 129.119 12.4261 128.227 12.7969 127.464C13.1719 126.701 13.6918 126.109 14.3565 125.687C15.0256 125.265 15.8033 125.054 16.6896 125.054C17.576 125.054 18.3516 125.265 19.0163 125.687C19.6854 126.109 20.2053 126.701 20.576 127.464C20.951 128.227 21.1385 129.119 21.1385 130.142C21.1385 131.156 20.951 132.043 20.576 132.801C20.2053 133.56 19.6854 134.15 19.0163 134.572C18.3516 134.994 17.576 135.205 16.6896 135.205ZM16.6896 133.849C17.3629 133.849 17.9169 133.677 18.3516 133.332C18.7862 132.987 19.108 132.533 19.3168 131.97C19.5256 131.408 19.63 130.798 19.63 130.142C19.63 129.486 19.5256 128.874 19.3168 128.308C19.108 127.741 18.7862 127.283 18.3516 126.933C17.9169 126.584 17.3629 126.409 16.6896 126.409C16.0163 126.409 15.4624 126.584 15.0277 126.933C14.593 127.283 14.2713 127.741 14.0625 128.308C13.8537 128.874 13.7493 129.486 13.7493 130.142C13.7493 130.798 13.8537 131.408 14.0625 131.97C14.2713 132.533 14.593 132.987 15.0277 133.332C15.4624 133.677 16.0163 133.849 16.6896 133.849ZM23.4412 135V125.182H24.8986V126.665H25.0009C25.1799 126.179 25.5037 125.785 25.9725 125.482C26.4412 125.18 26.9696 125.028 27.5577 125.028C27.6685 125.028 27.807 125.031 27.9732 125.035C28.1394 125.039 28.2651 125.045 28.3503 125.054V126.588C28.2992 126.575 28.182 126.556 27.9988 126.531C27.8198 126.501 27.6301 126.486 27.4299 126.486C26.9526 126.486 26.5265 126.586 26.1515 126.786C25.7807 126.982 25.4867 127.255 25.2694 127.604C25.0563 127.95 24.9498 128.344 24.9498 128.787V135H23.4412ZM35.0236 125.182V126.46H29.9355V125.182H35.0236ZM31.4185 122.83H32.927V132.188C32.927 132.614 32.9888 132.933 33.1124 133.146C33.2402 133.355 33.4022 133.496 33.5982 133.568C33.7985 133.636 34.0094 133.67 34.231 133.67C34.3972 133.67 34.5336 133.662 34.6401 133.645C34.7466 133.624 34.8319 133.607 34.8958 133.594L35.2026 134.949C35.1003 134.987 34.9576 135.026 34.7743 135.064C34.5911 135.107 34.3588 135.128 34.0776 135.128C33.6515 135.128 33.2338 135.036 32.8248 134.853C32.4199 134.67 32.0833 134.391 31.8148 134.016C31.5506 133.641 31.4185 133.168 31.4185 132.597V122.83ZM41.665 125.182V126.46H36.3723V125.182H41.665ZM37.9576 135V123.827C37.9576 123.264 38.0897 122.795 38.3539 122.42C38.6181 122.045 38.9611 121.764 39.383 121.577C39.8049 121.389 40.2502 121.295 40.7189 121.295C41.0897 121.295 41.3922 121.325 41.6266 121.385C41.861 121.445 42.0357 121.5 42.1507 121.551L41.7161 122.855C41.6394 122.83 41.5328 122.798 41.3965 122.759C41.2644 122.721 41.0897 122.702 40.8723 122.702C40.3738 122.702 40.0137 122.827 39.7921 123.079C39.5748 123.33 39.4661 123.699 39.4661 124.185V135H37.9576ZM47.3635 135.205C46.4771 135.205 45.6994 134.994 45.0304 134.572C44.3656 134.15 43.8457 133.56 43.4707 132.801C43.1 132.043 42.9146 131.156 42.9146 130.142C42.9146 129.119 43.1 128.227 43.4707 127.464C43.8457 126.701 44.3656 126.109 45.0304 125.687C45.6994 125.265 46.4771 125.054 47.3635 125.054C48.2498 125.054 49.0254 125.265 49.6902 125.687C50.3592 126.109 50.8791 126.701 51.2498 127.464C51.6248 128.227 51.8123 129.119 51.8123 130.142C51.8123 131.156 51.6248 132.043 51.2498 132.801C50.8791 133.56 50.3592 134.15 49.6902 134.572C49.0254 134.994 48.2498 135.205 47.3635 135.205ZM47.3635 133.849C48.0368 133.849 48.5907 133.677 49.0254 133.332C49.46 132.987 49.7818 132.533 49.9906 131.97C50.1994 131.408 50.3038 130.798 50.3038 130.142C50.3038 129.486 50.1994 128.874 49.9906 128.308C49.7818 127.741 49.46 127.283 49.0254 126.933C48.5907 126.584 48.0368 126.409 47.3635 126.409C46.6902 126.409 46.1362 126.584 45.7015 126.933C45.2669 127.283 44.9451 127.741 44.7363 128.308C44.5275 128.874 44.4231 129.486 44.4231 130.142C44.4231 130.798 44.5275 131.408 44.7363 131.97C44.9451 132.533 45.2669 132.987 45.7015 133.332C46.1362 133.677 46.6902 133.849 47.3635 133.849ZM55.6236 121.909V135H54.1151V121.909H55.6236ZM58.3865 135V125.182H59.8951V135H58.3865ZM59.1536 123.545C58.8596 123.545 58.606 123.445 58.3929 123.245C58.1841 123.045 58.0797 122.804 58.0797 122.523C58.0797 122.241 58.1841 122.001 58.3929 121.8C58.606 121.6 58.8596 121.5 59.1536 121.5C59.4476 121.5 59.699 121.6 59.9078 121.8C60.1209 122.001 60.2275 122.241 60.2275 122.523C60.2275 122.804 60.1209 123.045 59.9078 123.245C59.699 123.445 59.4476 123.545 59.1536 123.545ZM66.6467 135.205C65.7603 135.205 64.9826 134.994 64.3136 134.572C63.6488 134.15 63.1289 133.56 62.7539 132.801C62.3832 132.043 62.1978 131.156 62.1978 130.142C62.1978 129.119 62.3832 128.227 62.7539 127.464C63.1289 126.701 63.6488 126.109 64.3136 125.687C64.9826 125.265 65.7603 125.054 66.6467 125.054C67.533 125.054 68.3086 125.265 68.9734 125.687C69.6424 126.109 70.1623 126.701 70.533 127.464C70.908 128.227 71.0955 129.119 71.0955 130.142C71.0955 131.156 70.908 132.043 70.533 132.801C70.1623 133.56 69.6424 134.15 68.9734 134.572C68.3086 134.994 67.533 135.205 66.6467 135.205ZM66.6467 133.849C67.32 133.849 67.8739 133.677 68.3086 133.332C68.7433 132.987 69.065 132.533 69.2738 131.97C69.4826 131.408 69.587 130.798 69.587 130.142C69.587 129.486 69.4826 128.874 69.2738 128.308C69.065 127.741 68.7433 127.283 68.3086 126.933C67.8739 126.584 67.32 126.409 66.6467 126.409C65.9734 126.409 65.4194 126.584 64.9847 126.933C64.5501 127.283 64.2283 127.741 64.0195 128.308C63.8107 128.874 63.7063 129.486 63.7063 130.142C63.7063 130.798 63.8107 131.408 64.0195 131.97C64.2283 132.533 64.5501 132.987 64.9847 133.332C65.4194 133.677 65.9734 133.849 66.6467 133.849Z" fill="#787878"/>
<path d="M2.12216 59H0.460227L5.26705 45.9091H6.90341L11.7102 59H10.0483L6.13636 47.9801H6.03409L2.12216 59ZM2.7358 53.8864H9.43466V55.2926H2.7358V53.8864ZM13.7493 59V45.9091H15.2578V50.7415H15.3857C15.4964 50.571 15.6499 50.3537 15.8459 50.0895C16.0462 49.821 16.3317 49.5824 16.7024 49.3736C17.0774 49.1605 17.5845 49.054 18.2237 49.054C19.0504 49.054 19.7791 49.2607 20.4098 49.674C21.0405 50.0874 21.5327 50.6733 21.8864 51.4318C22.2401 52.1903 22.4169 53.0852 22.4169 54.1165C22.4169 55.1562 22.2401 56.0575 21.8864 56.8203C21.5327 57.5788 21.0426 58.1669 20.4162 58.5845C19.7898 58.9979 19.0675 59.2045 18.2493 59.2045C17.6186 59.2045 17.1136 59.1001 16.7344 58.8913C16.3551 58.6783 16.0632 58.4375 15.8587 58.169C15.6541 57.8963 15.4964 57.6705 15.3857 57.4915H15.2067V59H13.7493ZM15.2322 54.0909C15.2322 54.8324 15.3409 55.4865 15.5582 56.0533C15.7756 56.6158 16.093 57.0568 16.5107 57.3764C16.9283 57.6918 17.4396 57.8494 18.0447 57.8494C18.6754 57.8494 19.2017 57.6832 19.6236 57.3509C20.0497 57.0142 20.3693 56.5625 20.5824 55.9957C20.7997 55.4247 20.9084 54.7898 20.9084 54.0909C20.9084 53.4006 20.8018 52.7784 20.5888 52.2244C20.38 51.6662 20.0625 51.2251 19.6364 50.9013C19.2145 50.5732 18.6839 50.4091 18.0447 50.4091C17.4311 50.4091 16.9155 50.5646 16.4979 50.8757C16.0803 51.1825 15.7649 51.6129 15.5518 52.1669C15.3388 52.7166 15.2322 53.358 15.2322 54.0909ZM28.7131 59.2045C27.8267 59.2045 27.049 58.9936 26.38 58.5717C25.7152 58.1499 25.1953 57.5597 24.8203 56.8011C24.4496 56.0426 24.2642 55.1562 24.2642 54.142C24.2642 53.1193 24.4496 52.2266 24.8203 51.4638C25.1953 50.701 25.7152 50.1087 26.38 49.6868C27.049 49.2649 27.8267 49.054 28.7131 49.054C29.5994 49.054 30.375 49.2649 31.0398 49.6868C31.7088 50.1087 32.2287 50.701 32.5994 51.4638C32.9744 52.2266 33.1619 53.1193 33.1619 54.142C33.1619 55.1562 32.9744 56.0426 32.5994 56.8011C32.2287 57.5597 31.7088 58.1499 31.0398 58.5717C30.375 58.9936 29.5994 59.2045 28.7131 59.2045ZM28.7131 57.8494C29.3864 57.8494 29.9403 57.6768 30.375 57.3317C30.8097 56.9865 31.1314 56.5327 31.3402 55.9702C31.549 55.4077 31.6534 54.7983 31.6534 54.142C31.6534 53.4858 31.549 52.8743 31.3402 52.3075C31.1314 51.7408 30.8097 51.2827 30.375 50.9332C29.9403 50.5838 29.3864 50.4091 28.7131 50.4091C28.0398 50.4091 27.4858 50.5838 27.0511 50.9332C26.6165 51.2827 26.2947 51.7408 26.0859 52.3075C25.8771 52.8743 25.7727 53.4858 25.7727 54.142C25.7727 54.7983 25.8771 55.4077 26.0859 55.9702C26.2947 56.5327 26.6165 56.9865 27.0511 57.3317C27.4858 57.6768 28.0398 57.8494 28.7131 57.8494ZM41.6522 54.9858V49.1818H43.1607V59H41.6522V57.3381H41.5499C41.3198 57.8366 40.9618 58.2607 40.476 58.6101C39.9902 58.9553 39.3766 59.1278 38.6351 59.1278C38.0215 59.1278 37.476 58.9936 36.9988 58.7251C36.5215 58.4524 36.1465 58.0433 35.8738 57.4979C35.601 56.9482 35.4647 56.2557 35.4647 55.4205V49.1818H36.9732V55.3182C36.9732 56.0341 37.1735 56.6051 37.574 57.0312C37.9789 57.4574 38.4945 57.6705 39.1209 57.6705C39.4959 57.6705 39.8773 57.5746 40.2651 57.3828C40.6571 57.1911 40.9853 56.897 41.2495 56.5007C41.5179 56.1044 41.6522 55.5994 41.6522 54.9858ZM50.1935 49.1818V50.4602H45.1055V49.1818H50.1935ZM46.5884 46.8295H48.0969V56.1875C48.0969 56.6136 48.1587 56.9332 48.2823 57.1463C48.4102 57.3551 48.5721 57.4957 48.7681 57.5682C48.9684 57.6364 49.1793 57.6705 49.4009 57.6705C49.5671 57.6705 49.7035 57.6619 49.81 57.6449C49.9165 57.6236 50.0018 57.6065 50.0657 57.5938L50.3725 58.9489C50.2702 58.9872 50.1275 59.0256 49.9442 59.0639C49.761 59.1065 49.5288 59.1278 49.2475 59.1278C48.8214 59.1278 48.4038 59.0362 47.9947 58.853C47.5898 58.6697 47.2532 58.3906 46.9847 58.0156C46.7205 57.6406 46.5884 57.1676 46.5884 56.5966V46.8295Z" fill="#787878"/>
<path d="M8.74432 87.1818C8.66761 86.5341 8.35653 86.0312 7.81108 85.6733C7.26563 85.3153 6.59659 85.1364 5.80398 85.1364C5.22443 85.1364 4.71733 85.2301 4.28267 85.4176C3.85227 85.6051 3.51563 85.8629 3.27273 86.1911C3.03409 86.5192 2.91477 86.892 2.91477 87.3097C2.91477 87.6591 2.99787 87.9595 3.16406 88.2109C3.33452 88.4581 3.55185 88.6648 3.81605 88.831C4.08026 88.9929 4.35724 89.1271 4.64702 89.2337C4.93679 89.3359 5.20312 89.419 5.44602 89.483L6.77557 89.8409C7.11648 89.9304 7.49574 90.054 7.91335 90.2116C8.33523 90.3693 8.73793 90.5845 9.12145 90.8572C9.50923 91.1257 9.82884 91.4709 10.0803 91.8928C10.3317 92.3146 10.4574 92.8324 10.4574 93.446C10.4574 94.1534 10.272 94.7926 9.90128 95.3636C9.5348 95.9347 8.99787 96.3885 8.29048 96.7251C7.58736 97.0618 6.73295 97.2301 5.72727 97.2301C4.78977 97.2301 3.97798 97.0788 3.2919 96.7763C2.61009 96.4737 2.07315 96.0518 1.68111 95.5107C1.29332 94.9695 1.07386 94.3409 1.02273 93.625H2.65909C2.7017 94.1193 2.8679 94.5284 3.15767 94.8523C3.4517 95.1719 3.82244 95.4105 4.26989 95.5682C4.72159 95.7216 5.20739 95.7983 5.72727 95.7983C6.33239 95.7983 6.87571 95.7003 7.35724 95.5043C7.83878 95.304 8.22017 95.027 8.50142 94.6733C8.78267 94.3153 8.9233 93.8977 8.9233 93.4205C8.9233 92.9858 8.80185 92.6321 8.55895 92.3594C8.31605 92.0866 7.99645 91.8651 7.60014 91.6946C7.20384 91.5241 6.77557 91.375 6.31534 91.2472L4.70455 90.7869C3.68182 90.4929 2.87216 90.0732 2.27557 89.5277C1.67898 88.9822 1.38068 88.2685 1.38068 87.3864C1.38068 86.6534 1.57884 86.0142 1.97514 85.4688C2.37571 84.919 2.91264 84.4929 3.58594 84.1903C4.26349 83.8835 5.01989 83.7301 5.85511 83.7301C6.69886 83.7301 7.44886 83.8814 8.10511 84.1839C8.76136 84.4822 9.28125 84.8913 9.66477 85.4112C10.0526 85.9311 10.2571 86.5213 10.2784 87.1818H8.74432ZM16.9757 97.2045C16.0297 97.2045 15.2136 96.9957 14.5275 96.5781C13.8457 96.1562 13.3194 95.5682 12.9487 94.8139C12.5822 94.0554 12.399 93.1733 12.399 92.1676C12.399 91.1619 12.5822 90.2756 12.9487 89.5085C13.3194 88.7372 13.835 88.1364 14.4956 87.706C15.1603 87.2713 15.9359 87.054 16.8223 87.054C17.3336 87.054 17.8386 87.1392 18.3372 87.3097C18.8358 87.4801 19.2896 87.7571 19.6987 88.1406C20.1078 88.5199 20.4338 89.0227 20.6767 89.6491C20.9196 90.2756 21.041 91.0469 21.041 91.9631V92.6023H13.4728V91.2983H19.5069C19.5069 90.7443 19.3961 90.25 19.1745 89.8153C18.9572 89.3807 18.6461 89.0376 18.2413 88.7862C17.8407 88.5348 17.3677 88.4091 16.8223 88.4091C16.2214 88.4091 15.7015 88.5582 15.2626 88.8565C14.8279 89.1506 14.4934 89.5341 14.2591 90.0071C14.0247 90.4801 13.9075 90.9872 13.9075 91.5284V92.3977C13.9075 93.1392 14.0353 93.7678 14.291 94.2834C14.551 94.7947 14.911 95.1847 15.3713 95.4531C15.8315 95.7173 16.3663 95.8494 16.9757 95.8494C17.372 95.8494 17.7299 95.794 18.0495 95.6832C18.3734 95.5682 18.6525 95.3977 18.8869 95.1719C19.1213 94.9418 19.3024 94.6562 19.4302 94.3153L20.8876 94.7244C20.7342 95.2188 20.4764 95.6534 20.1142 96.0284C19.752 96.3991 19.3045 96.6889 18.7718 96.8977C18.2392 97.1023 17.6404 97.2045 16.9757 97.2045ZM23.3358 97V87.1818H24.7931V88.6648H24.8954C25.0744 88.179 25.3983 87.7848 25.867 87.4822C26.3358 87.1797 26.8642 87.0284 27.4522 87.0284C27.563 87.0284 27.7015 87.0305 27.8677 87.0348C28.0339 87.0391 28.1596 87.0455 28.2449 87.054V88.5881C28.1937 88.5753 28.0765 88.5561 27.8933 88.5305C27.7143 88.5007 27.5247 88.4858 27.3244 88.4858C26.8471 88.4858 26.421 88.5859 26.046 88.7862C25.6752 88.9822 25.3812 89.255 25.1639 89.6044C24.9508 89.9496 24.8443 90.3437 24.8443 90.7869V97H23.3358ZM38.3603 87.1818L34.7296 97H33.1955L29.5648 87.1818H31.2012L33.9114 95.0057H34.0137L36.7239 87.1818H38.3603ZM40.3514 97V87.1818H41.8599V97H40.3514ZM41.1184 85.5455C40.8244 85.5455 40.5708 85.4453 40.3578 85.245C40.149 85.0447 40.0446 84.804 40.0446 84.5227C40.0446 84.2415 40.149 84.0007 40.3578 83.8004C40.5708 83.6001 40.8244 83.5 41.1184 83.5C41.4125 83.5 41.6639 83.6001 41.8727 83.8004C42.0858 84.0007 42.1923 84.2415 42.1923 84.5227C42.1923 84.804 42.0858 85.0447 41.8727 85.245C41.6639 85.4453 41.4125 85.5455 41.1184 85.5455ZM48.6115 97.2045C47.6911 97.2045 46.8984 96.9872 46.2337 96.5526C45.5689 96.1179 45.0575 95.5192 44.6996 94.7564C44.3416 93.9936 44.1626 93.1222 44.1626 92.142C44.1626 91.1449 44.3459 90.2649 44.7124 89.5021C45.0831 88.7351 45.5987 88.1364 46.2592 87.706C46.924 87.2713 47.6996 87.054 48.5859 87.054C49.2763 87.054 49.8984 87.1818 50.4524 87.4375C51.0064 87.6932 51.4602 88.0511 51.8139 88.5114C52.1676 88.9716 52.3871 89.5085 52.4723 90.1222H50.9638C50.8487 89.6747 50.593 89.2784 50.1967 88.9332C49.8047 88.5838 49.2763 88.4091 48.6115 88.4091C48.0234 88.4091 47.5078 88.5625 47.0646 88.8693C46.6257 89.1719 46.2827 89.6001 46.0355 90.1541C45.7926 90.7038 45.6712 91.3494 45.6712 92.0909C45.6712 92.8494 45.7905 93.5099 46.0291 94.0724C46.272 94.6349 46.6129 95.0717 47.0518 95.3828C47.495 95.6939 48.0149 95.8494 48.6115 95.8494C49.0036 95.8494 49.3594 95.7812 49.679 95.6449C49.9986 95.5085 50.2692 95.3125 50.4908 95.0568C50.7124 94.8011 50.87 94.4943 50.9638 94.1364H52.4723C52.3871 94.7159 52.1761 95.2379 51.8395 95.7024C51.5071 96.1626 51.0661 96.5291 50.5163 96.8018C49.9709 97.0703 49.3359 97.2045 48.6115 97.2045ZM58.794 97.2045C57.848 97.2045 57.032 96.9957 56.3459 96.5781C55.6641 96.1562 55.1378 95.5682 54.767 94.8139C54.4006 94.0554 54.2173 93.1733 54.2173 92.1676C54.2173 91.1619 54.4006 90.2756 54.767 89.5085C55.1378 88.7372 55.6534 88.1364 56.3139 87.706C56.9787 87.2713 57.7543 87.054 58.6406 87.054C59.152 87.054 59.657 87.1392 60.1555 87.3097C60.6541 87.4801 61.108 87.7571 61.517 88.1406C61.9261 88.5199 62.2521 89.0227 62.495 89.6491C62.7379 90.2756 62.8594 91.0469 62.8594 91.9631V92.6023H55.2912V91.2983H61.3253C61.3253 90.7443 61.2145 90.25 60.9929 89.8153C60.7756 89.3807 60.4645 89.0376 60.0597 88.7862C59.6591 88.5348 59.1861 88.4091 58.6406 88.4091C58.0398 88.4091 57.5199 88.5582 57.081 88.8565C56.6463 89.1506 56.3118 89.5341 56.0774 90.0071C55.843 90.4801 55.7259 90.9872 55.7259 91.5284V92.3977C55.7259 93.1392 55.8537 93.7678 56.1094 94.2834C56.3693 94.7947 56.7294 95.1847 57.1896 95.4531C57.6499 95.7173 58.1847 95.8494 58.794 95.8494C59.1903 95.8494 59.5483 95.794 59.8679 95.6832C60.1918 95.5682 60.4709 95.3977 60.7053 95.1719C60.9396 94.9418 61.1207 94.6562 61.2486 94.3153L62.706 94.7244C62.5526 95.2188 62.2947 95.6534 61.9325 96.0284C61.5703 96.3991 61.1229 96.6889 60.5902 96.8977C60.0575 97.1023 59.4588 97.2045 58.794 97.2045Z" fill="#787878"/>
<path d="M1.58523 173V159.909H6.16193C7.07386 159.909 7.82599 160.067 8.41832 160.382C9.01065 160.693 9.45171 161.113 9.74148 161.641C10.0313 162.165 10.1761 162.747 10.1761 163.386C10.1761 163.949 10.076 164.413 9.87571 164.78C9.67969 165.146 9.41974 165.436 9.09588 165.649C8.77628 165.862 8.42898 166.02 8.05398 166.122V166.25C8.45455 166.276 8.85724 166.416 9.26207 166.672C9.6669 166.928 10.0057 167.294 10.2784 167.771C10.5511 168.249 10.6875 168.832 10.6875 169.523C10.6875 170.179 10.5384 170.769 10.2401 171.293C9.94176 171.817 9.47088 172.233 8.82741 172.54C8.18395 172.847 7.34659 173 6.31534 173H1.58523ZM3.17045 171.594H6.31534C7.35085 171.594 8.08594 171.393 8.5206 170.993C8.95952 170.588 9.17898 170.098 9.17898 169.523C9.17898 169.08 9.06605 168.67 8.8402 168.295C8.61435 167.916 8.29261 167.614 7.875 167.388C7.45739 167.158 6.96307 167.043 6.39205 167.043H3.17045V171.594ZM3.17045 165.662H6.1108C6.58807 165.662 7.01847 165.568 7.40199 165.381C7.78977 165.193 8.09659 164.929 8.32244 164.588C8.55256 164.247 8.66761 163.847 8.66761 163.386C8.66761 162.811 8.46733 162.323 8.06676 161.923C7.66619 161.518 7.03125 161.315 6.16193 161.315H3.17045V165.662ZM14.5962 159.909V173H13.0877V159.909H14.5962ZM21.3478 173.205C20.4615 173.205 19.6838 172.994 19.0147 172.572C18.35 172.15 17.8301 171.56 17.4551 170.801C17.0843 170.043 16.899 169.156 16.899 168.142C16.899 167.119 17.0843 166.227 17.4551 165.464C17.8301 164.701 18.35 164.109 19.0147 163.687C19.6838 163.265 20.4615 163.054 21.3478 163.054C22.2342 163.054 23.0098 163.265 23.6745 163.687C24.3436 164.109 24.8635 164.701 25.2342 165.464C25.6092 166.227 25.7967 167.119 25.7967 168.142C25.7967 169.156 25.6092 170.043 25.2342 170.801C24.8635 171.56 24.3436 172.15 23.6745 172.572C23.0098 172.994 22.2342 173.205 21.3478 173.205ZM21.3478 171.849C22.0211 171.849 22.5751 171.677 23.0098 171.332C23.4444 170.987 23.7662 170.533 23.975 169.97C24.1838 169.408 24.2882 168.798 24.2882 168.142C24.2882 167.486 24.1838 166.874 23.975 166.308C23.7662 165.741 23.4444 165.283 23.0098 164.933C22.5751 164.584 22.0211 164.409 21.3478 164.409C20.6745 164.409 20.1206 164.584 19.6859 164.933C19.2512 165.283 18.9295 165.741 18.7207 166.308C18.5119 166.874 18.4075 167.486 18.4075 168.142C18.4075 168.798 18.5119 169.408 18.7207 169.97C18.9295 170.533 19.2512 170.987 19.6859 171.332C20.1206 171.677 20.6745 171.849 21.3478 171.849ZM32.0625 176.886C31.3338 176.886 30.7074 176.793 30.1832 176.605C29.6591 176.422 29.2223 176.179 28.8729 175.876C28.5277 175.578 28.2528 175.259 28.0483 174.918L29.25 174.074C29.3864 174.253 29.5589 174.457 29.7678 174.688C29.9766 174.922 30.2621 175.124 30.6243 175.295C30.9908 175.469 31.4702 175.557 32.0625 175.557C32.8551 175.557 33.5092 175.365 34.0249 174.982C34.5405 174.598 34.7983 173.997 34.7983 173.179V171.185H34.6705C34.5597 171.364 34.402 171.585 34.1974 171.849C33.9972 172.109 33.7074 172.342 33.3281 172.546C32.9531 172.746 32.446 172.847 31.8068 172.847C31.0142 172.847 30.3026 172.659 29.6719 172.284C29.0455 171.909 28.549 171.364 28.1825 170.648C27.8203 169.932 27.6392 169.062 27.6392 168.04C27.6392 167.034 27.8161 166.158 28.1697 165.413C28.5234 164.663 29.0156 164.083 29.6463 163.674C30.277 163.261 31.0057 163.054 31.8324 163.054C32.4716 163.054 32.9787 163.161 33.3537 163.374C33.733 163.582 34.0227 163.821 34.223 164.089C34.4276 164.354 34.5852 164.571 34.696 164.741H34.8494V163.182H36.3068V173.281C36.3068 174.125 36.1151 174.811 35.7315 175.339C35.3523 175.872 34.8409 176.262 34.1974 176.509C33.5582 176.761 32.8466 176.886 32.0625 176.886ZM32.0114 171.491C32.6165 171.491 33.1278 171.353 33.5455 171.076C33.9631 170.799 34.2805 170.401 34.4979 169.881C34.7152 169.361 34.8239 168.739 34.8239 168.014C34.8239 167.307 34.7173 166.683 34.5043 166.141C34.2912 165.6 33.9759 165.176 33.5582 164.869C33.1406 164.562 32.625 164.409 32.0114 164.409C31.3722 164.409 30.8395 164.571 30.4134 164.895C29.9915 165.219 29.674 165.653 29.4609 166.199C29.2521 166.744 29.1477 167.349 29.1477 168.014C29.1477 168.696 29.2543 169.299 29.4673 169.823C29.6847 170.343 30.0043 170.752 30.4261 171.05C30.8523 171.344 31.3807 171.491 32.0114 171.491Z" fill="#787878"/>
</svg>
